<svg xmlns="http://www.w3.org/2000/svg" width="20" height="20" viewBox="0 0 20 20">
    <g fill="none" fill-rule="evenodd">
        <path d="M0 0h20v20H0z"/>
        <path fill="#7C8796" fill-rule="nonzero" stroke="#7C8796" stroke-width=".25" d="M16.038 15.8a.77.77 0 0 0 .564-.235.77.77 0 0 0 .235-.565v-1.231c0-.237-.133-.43-.4-.578l-.4-.222-3.541-1.689c.279-.22.516-.484.71-.793.195-.31.352-.63.47-.965.119-.334.203-.662.254-.984.05-.322.076-.605.076-.85V5.655c0-.338-.108-.677-.323-1.015a3.703 3.703 0 0 0-.838-.914 4.494 4.494 0 0 0-1.168-.66 3.638 3.638 0 0 0-1.327-.255c-.449 0-.893.085-1.333.254-.44.17-.832.39-1.174.66-.343.271-.62.576-.832.915-.211.338-.317.677-.317 1.015v2.032c0 .22.025.488.076.806.05.317.137.643.26.977.123.335.282.662.476.984.195.322.436.597.724.825L4.662 12.97l-.406.235c-.27.156-.406.345-.406.565V15c0 .22.078.408.235.565.156.157.349.235.577.235h11.376zM4.662 15v-.825c0-.17.045-.286.134-.35a.89.89 0 0 1 .21-.12l3.567-1.688a.774.774 0 0 0 .31-.26.947.947 0 0 0 .16-.375.806.806 0 0 0-.305-.736c-.423-.339-.735-.817-.933-1.435-.2-.618-.299-1.126-.299-1.524v-2.03c0-.212.083-.437.248-.674a2.92 2.92 0 0 1 .654-.66c.27-.203.575-.37.914-.501a2.825 2.825 0 0 1 1.028-.197c.339 0 .68.066 1.022.197.343.131.647.296.914.495s.485.417.654.654c.17.237.254.465.254.685v2.032c0 .389-.091.895-.273 1.517-.182.622-.493 1.102-.933 1.44a.806.806 0 0 0-.305.736.822.822 0 0 0 .47.647l3.542 1.677c.008 0 .065.028.171.083.106.055.159.192.159.412v.787L4.663 15z"/>
    </g>
</svg>
