<svg xmlns="http://www.w3.org/2000/svg" width="18" height="18" viewBox="0 0 18 18">
    <path fill="#16C0EF" d="M8.857 17.32c1.52 0 2.927-.38 4.22-1.14 1.253-.72 2.24-1.707 2.96-2.96.76-1.293 1.14-2.7 1.14-4.22 0-1.52-.38-2.927-1.14-4.22-.72-1.253-1.707-2.24-2.96-2.96-1.293-.76-2.7-1.14-4.22-1.14-1.507 0-2.907.38-4.2 1.14-1.253.733-2.247 1.727-2.98 2.98C.917 6.093.537 7.493.537 9c0 1.507.38 2.907 1.14 4.2.72 1.253 1.707 2.247 2.96 2.98 1.293.76 2.7 1.14 4.22 1.14zm0-1.64c-1.2 0-2.32-.307-3.36-.92-1.013-.587-1.813-1.387-2.4-2.4-.613-1.04-.92-2.16-.92-3.36 0-1.2.307-2.32.92-3.36.587-1.013 1.387-1.813 2.4-2.4 1.04-.613 2.16-.92 3.36-.92 1.2 0 2.32.307 3.36.92 1.013.587 1.813 1.387 2.4 2.4.613 1.04.92 2.16.92 3.36 0 1.2-.307 2.32-.92 3.36-.587 1.013-1.387 1.813-2.4 2.4-1.04.613-2.16.92-3.36.92zm.82-2.5V9.82h3.36V8.18h-3.36V4.82h-1.64v3.36h-3.36v1.64h3.36v3.36h1.64z"/>
</svg>
