<svg xmlns="http://www.w3.org/2000/svg" width="24" height="24" viewBox="0 0 24 24">
    <g fill="none" fill-rule="evenodd">
        <path d="M0 0h24v24H0z"/>
        <path fill="#7C8796" fill-rule="nonzero" stroke="#7C8796" stroke-width=".5" d="M10.066 20.072c.774 0 1.512-.14 2.215-.422a5.65 5.65 0 0 0 1.934-1.265l4.36-4.307c.41-.41.726-.885.948-1.424.211-.527.317-1.072.317-1.634 0-1.207-.428-2.233-1.283-3.077-.856-.843-1.893-1.265-3.112-1.265-.574 0-1.125.105-1.652.316-.54.211-1.02.522-1.441.932l-4.096 4.06a2.324 2.324 0 0 0-.73 1.75c.006.685.252 1.27.739 1.757.486.486 1.075.73 1.766.73h.018c.691 0 1.277-.24 1.758-.721l3.603-3.55a.596.596 0 0 0 .176-.44.596.596 0 0 0-.176-.44.646.646 0 0 0-.448-.176c-.17 0-.32.06-.448.176l-3.586 3.551a1.2 1.2 0 0 1-.88.37h-.017a1.255 1.255 0 0 1-.879-.37 1.21 1.21 0 0 1-.369-.888c0-.345.117-.635.352-.87l4.095-4.06c.61-.586 1.348-.88 2.215-.88a3.06 3.06 0 0 1 2.224.906c.615.604.923 1.333.923 2.189 0 .855-.305 1.582-.914 2.18l-4.342 4.306c-.89.879-1.98 1.318-3.27 1.318-1.289 0-2.384-.448-3.287-1.345-.902-.896-1.356-1.977-1.362-3.243-.006-1.265.442-2.343 1.345-3.234l5.607-5.555a.586.586 0 0 0 .176-.43c0-.17-.059-.32-.176-.449a.646.646 0 0 0-.448-.175c-.17 0-.32.058-.448.175l-5.608 5.555a5.92 5.92 0 0 0-1.283 1.916 5.863 5.863 0 0 0-.422 2.197c0 .762.147 1.494.44 2.198.293.726.72 1.37 1.283 1.933.562.551 1.213.973 1.951 1.266.703.293 1.447.44 2.232.44z"/>
    </g>
</svg>
