<svg xmlns="http://www.w3.org/2000/svg" width="24" height="24" viewBox="0 0 24 24">
    <g fill="none" fill-rule="evenodd">
        <path d="M0 0h24v24H0z"/>
        <path fill="#16C0EF" fill-rule="nonzero" d="M5.779 21.938a.453.453 0 0 0 .088-.01.453.453 0 0 1 .088-.01 3.39 3.39 0 0 0 1.289-.342c.416-.202.8-.478 1.152-.83l8.926-9.512c.573-.573.889-1.185.947-1.836.059-.65-.16-1.217-.654-1.699-.326-.325-.638-.527-.938-.605-.3-.078-.56-.11-.78-.098-.274.026-.545.11-.811.254a3.797 3.797 0 0 0-.811.605l-6.719 7.168a.652.652 0 0 0-.176.45c0 .169.066.312.196.43.13.117.28.175.449.175.17 0 .313-.065.43-.195l6.718-7.149c.157-.143.306-.257.45-.341.143-.085.273-.134.39-.147.04 0 .124.01.254.03.13.019.287.126.469.322.338.325.413.66.225 1.006-.19.345-.368.602-.538.771l-8.925 9.492c-.235.248-.492.44-.772.576-.28.137-.556.212-.83.225a1.677 1.677 0 0 1-.82-.127 2.286 2.286 0 0 1-.723-.498 2.37 2.37 0 0 1-.723-1.738c0-.677.241-1.257.723-1.739l11.23-11.914c.717-.729 1.511-.999 2.383-.81.873.189 1.608.589 2.207 1.201.326.312.573.693.743 1.143.169.449.254.92.254 1.416a4.1 4.1 0 0 1-.293 1.425 3.66 3.66 0 0 1-.762 1.192l-8.496 9.023a.627.627 0 0 0-.166.46.631.631 0 0 0 .185.439.614.614 0 0 0 .88-.04l8.495-9.023c.43-.443.769-.963 1.016-1.562.247-.6.378-1.23.39-1.895a4.843 4.843 0 0 0-.341-1.904 4.751 4.751 0 0 0-1.006-1.572A5.93 5.93 0 0 0 19.49 3.02a4.505 4.505 0 0 0-1.69-.449 4.034 4.034 0 0 0-1.66.254 3.933 3.933 0 0 0-1.455.967L3.455 15.707c-.716.716-1.075 1.585-1.075 2.607 0 1.023.359 1.892 1.075 2.608a3.57 3.57 0 0 0 1.084.752c.397.176.81.264 1.24.264z"/>
    </g>
</svg>
