<svg xmlns="http://www.w3.org/2000/svg" width="736" height="451" viewBox="0 0 736 451">
    <g fill="#E0E6EE" fill-rule="evenodd" opacity=".28">
        <path d="M29.666 91h73.246c6.786 0 12.288 5.502 12.288 12.288v73.246c0 6.787-5.502 12.288-12.288 12.288-3.259 0-6.384-1.294-8.689-3.599l-73.246-73.246c-4.799-4.799-4.799-12.58 0-17.378C23.28 92.295 26.407 91 29.666 91zM449.666 0h73.246c6.786 0 12.288 5.502 12.288 12.288v73.246c0 6.787-5.502 12.288-12.288 12.288-3.259 0-6.384-1.294-8.689-3.599l-73.246-73.246c-4.799-4.799-4.799-12.58 0-17.378C443.28 1.295 446.407 0 449.666 0zM512.715 134.2h128.181c11.876 0 21.504 9.628 21.504 21.504v128.18c0 11.877-9.628 21.505-21.504 21.505-5.703 0-11.173-2.266-15.206-6.299L497.51 170.91c-8.398-8.398-8.398-22.014 0-30.412 4.032-4.032 9.502-6.298 15.205-6.298zM234.915 279h128.181c11.876 0 21.504 9.628 21.504 21.504v128.18c0 11.877-9.628 21.505-21.504 21.505-5.703 0-11.173-2.266-15.206-6.299L219.71 315.71c-8.398-8.398-8.398-22.014 0-30.412 4.032-4.032 9.502-6.298 15.205-6.298zM237.816 43h18.312c1.697 0 3.072 1.375 3.072 3.072v18.312c0 1.696-1.375 3.072-3.072 3.072-.815 0-1.596-.324-2.172-.9l-18.312-18.312c-1.2-1.2-1.2-3.145 0-4.344.576-.576 1.358-.9 2.172-.9zM377.233 112.6h36.623c3.393 0 6.144 2.75 6.144 6.144v36.623c0 3.393-2.75 6.144-6.144 6.144-1.63 0-3.192-.647-4.344-1.8l-36.624-36.623c-2.399-2.399-2.399-6.29 0-8.688 1.153-1.153 2.715-1.8 4.345-1.8zM644.941 371.8h45.779c4.242 0 7.68 3.438 7.68 7.68v45.779c0 4.241-3.438 7.68-7.68 7.68-2.037 0-3.99-.81-5.43-2.25l-45.78-45.778c-2.999-3-2.999-7.862 0-10.862 1.44-1.44 3.394-2.249 5.431-2.249zM157.741 141.4h45.779c4.242 0 7.68 3.438 7.68 7.68v45.779c0 4.241-3.438 7.68-7.68 7.68-2.037 0-3.99-.81-5.43-2.25l-45.78-45.778c-2.999-3-2.999-7.862 0-10.862 1.44-1.44 3.394-2.249 5.431-2.249zM699.541 21h45.779c4.242 0 7.68 3.438 7.68 7.68v45.779c0 4.241-3.438 7.68-7.68 7.68-2.037 0-3.99-.81-5.43-2.25l-45.78-45.778c-2.999-3-2.999-7.862 0-10.862 1.44-1.44 3.394-2.249 5.431-2.249z" opacity=".456" transform="translate(-17)"/>
    </g>
</svg>
