<svg xmlns="http://www.w3.org/2000/svg" width="24" height="24" viewBox="0 0 24 24">
    <g fill="none" fill-rule="evenodd">
        <path d="M0 0h24v24H0z"/>
        <path fill="#7C8796" fill-rule="nonzero" d="M20.813 22.5c.468 0 .867-.164 1.195-.492.328-.328.492-.727.492-1.195V4.688c0-.47-.164-.868-.492-1.196A1.627 1.627 0 0 0 20.813 3H18v-.656a.814.814 0 0 0-.246-.598.814.814 0 0 0-.598-.246.814.814 0 0 0-.597.246.814.814 0 0 0-.247.598V3H7.688v-.656a.814.814 0 0 0-.246-.598.814.814 0 0 0-.597-.246.814.814 0 0 0-.598.246.814.814 0 0 0-.246.598V3H3.187c-.468 0-.867.164-1.195.492A1.627 1.627 0 0 0 1.5 4.688v16.125c0 .468.164.867.492 1.195.328.328.727.492 1.196.492h17.625zm0-15.188H3.188V4.688H6v.47c0 .234.082.433.246.597A.814.814 0 0 0 6.844 6a.814.814 0 0 0 .597-.246.814.814 0 0 0 .247-.598v-.468h8.625v.468c0 .235.082.434.246.598a.814.814 0 0 0 .597.246.814.814 0 0 0 .598-.246.814.814 0 0 0 .246-.598v-.468h2.813v2.625zm0 13.5H3.188V9h17.625v11.813zM8.25 13.5a.72.72 0 0 0 .527-.223A.72.72 0 0 0 9 12.75a.72.72 0 0 0-.223-.527A.72.72 0 0 0 8.25 12h-1.5a.72.72 0 0 0-.527.223.72.72 0 0 0-.223.527.72.72 0 0 0 .223.527.72.72 0 0 0 .527.223h1.5zm4.5 0a.72.72 0 0 0 .527-.223.72.72 0 0 0 .223-.527.72.72 0 0 0-.223-.527.72.72 0 0 0-.527-.223h-1.5a.72.72 0 0 0-.527.223.72.72 0 0 0-.223.527.72.72 0 0 0 .223.527.72.72 0 0 0 .527.223h1.5zm4.5 0a.72.72 0 0 0 .527-.223.72.72 0 0 0 .223-.527.72.72 0 0 0-.223-.527.72.72 0 0 0-.527-.223h-1.5a.72.72 0 0 0-.527.223.72.72 0 0 0-.223.527.72.72 0 0 0 .223.527.72.72 0 0 0 .527.223h1.5zm-9 4.547a.72.72 0 0 0 .527-.223.72.72 0 0 0 .223-.527.72.72 0 0 0-.223-.527.72.72 0 0 0-.527-.223h-1.5a.72.72 0 0 0-.527.223.72.72 0 0 0-.223.527.72.72 0 0 0 .223.527.72.72 0 0 0 .527.223h1.5zm4.5 0a.72.72 0 0 0 .527-.223.72.72 0 0 0 .223-.527.72.72 0 0 0-.223-.527.72.72 0 0 0-.527-.223h-1.5a.72.72 0 0 0-.527.223.72.72 0 0 0-.223.527.72.72 0 0 0 .223.527.72.72 0 0 0 .527.223h1.5z"/>
    </g>
</svg>
