<svg xmlns="http://www.w3.org/2000/svg" width="24" height="24" viewBox="0 0 24 24">
    <g fill="none" fill-rule="evenodd">
        <path d="M0 0h24v24H0z"/>
        <path fill="#BAC3CF" fill-rule="nonzero" stroke="#BAC3CF" stroke-width=".5" d="M20.164 20.375c.404 0 .81-.186 1.22-.557.41-.37.616-.804.616-1.298V8.5c0-.313-.156-.703-.469-1.172-.312-.469-.781-.703-1.406-.703h-2.871l-1.504-2.5h-7.5l-1.504 2.5H3.875c-.313 0-.703.156-1.172.469C2.234 7.406 2 7.868 2 8.48V18.5c0 .52.189.964.566 1.328.378.365.769.547 1.172.547h16.426zm0-1.25H3.758c-.078 0-.182-.062-.313-.186a.586.586 0 0 1-.195-.439V8.48c0-.195.091-.345.273-.449.183-.104.3-.156.352-.156h3.574l1.504-2.5h6.133l1.113 1.895.352.605h3.574c.221 0 .38.098.479.293.097.195.146.306.146.332v10.02c0 .117-.075.244-.225.38-.15.137-.27.212-.36.225zM12 17.25a4.391 4.391 0 0 0 3.096-1.28 4.391 4.391 0 0 0 1.279-3.095 4.391 4.391 0 0 0-1.28-3.096A4.391 4.391 0 0 0 12 8.5a4.391 4.391 0 0 0-3.096 1.28 4.391 4.391 0 0 0-1.279 3.095 4.391 4.391 0 0 0 1.28 3.096A4.391 4.391 0 0 0 12 17.25zM12 16a3.01 3.01 0 0 1-2.207-.918 3.01 3.01 0 0 1-.918-2.207c0-.86.306-1.595.918-2.207A3.01 3.01 0 0 1 12 9.75c.86 0 1.595.306 2.207.918a3.01 3.01 0 0 1 .918 2.207 3.01 3.01 0 0 1-.918 2.207A3.01 3.01 0 0 1 12 16z"/>
    </g>
</svg>
