<svg xmlns="http://www.w3.org/2000/svg" width="31" height="25" viewBox="0 0 31 25">
    <g fill="none">
        <path fill="#FFB600" d="M13.197 23.845l3.555-4.694-2.673-.367-1.503 1.812c-.327.395-.872.158-1.157-.045l-7.702-5.494c-.291-.208-.045-.572.257-.622l7.717-1.27.923-1.571-12.05 1.983c-.449.073-.79.586-.38.922l11.3 9.278c.4.328 1.256.673 1.713.068"/>
        <path fill="#FFF" d="M20.713.557l9.273 16.896c.946 1.722-.004 3.516-1.626 3.293L17.61 19.27l1.067-1.82 7.757 1.003c.807.11.722-.444.382-1.065L20.274 3.75c-.138-.25-.605-.382-.763-.11l-7.242 12.336c-.215.366-.274.609.192.673l3.063.396-1.445 1.74-3.889-.534c-.725-.1-1.042-.753-.613-1.484L18.906.874c.42-.715 1.221-1.384 1.807-.317"/>
        <path fill="#FFB500" d="M18.097 17.376l.752-.994 3.317-4.379c.738-.974.583-2.077-.42-1.913l-5.85.964-.746 1.541 3.138-.516c.676-.111.81.657.283 1.293l-2.126 2.562-.922 1.11-2.544 3.066 2.093 1.258 3.025-3.992"/>
    </g>
</svg>
