<svg xmlns="http://www.w3.org/2000/svg" width="16" height="16" viewBox="0 0 16 16">
    <path fill="#FFF" d="M8 16c1.104 0 2.143-.208 3.117-.625.974-.417 1.823-.987 2.547-1.71.724-.725 1.294-1.574 1.711-2.548C15.792 10.143 16 9.104 16 8s-.208-2.143-.625-3.117c-.417-.974-.987-1.823-1.71-2.547-.725-.724-1.574-1.294-2.548-1.711C10.143.208 9.104 0 8 0S5.857.208 4.883.625c-.974.417-1.823.987-2.547 1.71C1.612 3.06 1.042 3.91.625 4.884.208 5.857 0 6.896 0 8s.208 2.143.625 3.117c.417.974.987 1.823 1.71 2.547.725.724 1.574 1.294 2.548 1.711C5.857 15.792 6.896 16 8 16zm0-.984c-.969 0-1.878-.185-2.727-.555-.849-.37-1.588-.872-2.218-1.508-.63-.635-1.13-1.377-1.5-2.226C1.185 9.877 1 8.969 1 8c0-.969.185-1.878.555-2.727.37-.849.87-1.588 1.5-2.218.63-.63 1.37-1.13 2.218-1.5C6.123 1.185 7.031 1 8 1c.969 0 1.878.185 2.727.555.849.37 1.588.87 2.218 1.5.63.63 1.13 1.37 1.5 2.218.37.85.555 1.758.555 2.727 0 .969-.185 1.878-.555 2.727-.37.849-.87 1.59-1.5 2.226-.63.636-1.37 1.138-2.218 1.508-.85.37-1.758.555-2.727.555zm-1.492-4c.14 0 .258-.052.351-.157l.032-.03.03-.032 4.985-5.016c.094-.093.14-.21.14-.351 0-.14-.046-.258-.14-.352-.104-.104-.224-.156-.36-.156-.135 0-.254.052-.358.156L6.5 9.797l-2.11-2.11c-.104-.104-.223-.156-.359-.156-.135 0-.255.052-.36.157-.093.093-.14.21-.14.351 0 .14.047.258.14.352l2.485 2.468c.094.105.211.157.352.157z"/>
</svg>
