<svg xmlns="http://www.w3.org/2000/svg" width="24" height="24" viewBox="0 0 24 24">
    <g fill="none" fill-rule="evenodd">
        <path d="M0 0H24V24H0z"/>
        <g stroke="#7C8796" stroke-linecap="round" stroke-linejoin="round" stroke-width="1.5" transform="translate(1.714 3.429)">
            <path d="M3.56 10.22c3.165-.264 5.275.264 6.33 1.582h2.176c.546 0 .989.443.989.99 0 .545-.443.988-.99.988H7.913h0"/>
            <path d="M14.637 12.593l4.34-2.003c.448-.206.978-.02 1.199.421.22.441.051.978-.382 1.213l-6.239 3.379c-1.592.862-3.453 1.086-5.204.625l-4.79-1.261h0V9.824c0-.874-.709-1.582-1.583-1.582H.396h0"/>
            <circle cx="11.143" cy="5.868" r="2.769"/>
            <path d="M13.4 4.273c.792-.234 1.37-.966 1.37-1.833 0-1.056-.857-1.913-1.913-1.913s-1.912.857-1.912 1.913M.857 16.154L1.978 16.154"/>
        </g>
    </g>
</svg>
