<svg xmlns="http://www.w3.org/2000/svg" width="24" height="24" viewBox="0 0 24 24">
    <g fill="none" fill-rule="evenodd">
        <path d="M0 0h24v24H0z"/>
        <path fill="#7C8796" fill-rule="nonzero" d="M18.125 18.875a.834.834 0 0 0 .622-.26A.852.852 0 0 0 19 18V7.062a.846.846 0 0 0-.253-.622.846.846 0 0 0-.622-.253h-3.5v-.875a.42.42 0 0 0-.13-.307.42.42 0 0 0-.307-.13.42.42 0 0 0-.308.13.42.42 0 0 0-.13.308v.875h-3.5v-.875a.42.42 0 0 0-.13-.308.42.42 0 0 0-.307-.13.42.42 0 0 0-.308.13.42.42 0 0 0-.13.308v.875h-3.5a.846.846 0 0 0-.622.252.846.846 0 0 0-.253.622V18c0 .237.084.442.253.615.169.173.376.26.622.26h12.25zm0-.875H5.875V7.062h3.5V7.5a.42.42 0 0 0 .13.308.42.42 0 0 0 .307.13.42.42 0 0 0 .308-.13.42.42 0 0 0 .13-.308v-.438h3.5V7.5a.42.42 0 0 0 .13.308.42.42 0 0 0 .307.13.42.42 0 0 0 .308-.13.42.42 0 0 0 .13-.308v-.438h3.5V18zm-2.188-6.125a.42.42 0 0 0 .308-.13.42.42 0 0 0 .13-.307v-.876a.42.42 0 0 0-.13-.307.42.42 0 0 0-.308-.13h-.874a.42.42 0 0 0-.308.13.42.42 0 0 0-.13.307v.876a.42.42 0 0 0 .13.307.42.42 0 0 0 .307.13h.876zm-3.5 0a.42.42 0 0 0 .308-.13.42.42 0 0 0 .13-.307v-.876a.42.42 0 0 0-.13-.307.42.42 0 0 0-.307-.13h-.876a.42.42 0 0 0-.307.13.42.42 0 0 0-.13.307v.876a.42.42 0 0 0 .13.307.42.42 0 0 0 .307.13h.876zm-3.5 0a.42.42 0 0 0 .308-.13.42.42 0 0 0 .13-.307v-.876a.42.42 0 0 0-.13-.307.42.42 0 0 0-.307-.13h-.876a.42.42 0 0 0-.307.13.42.42 0 0 0-.13.307v.876a.42.42 0 0 0 .13.307.42.42 0 0 0 .308.13h.874zm7 3.5a.42.42 0 0 0 .308-.13.42.42 0 0 0 .13-.307v-.876a.42.42 0 0 0-.13-.307.42.42 0 0 0-.308-.13h-.874a.42.42 0 0 0-.308.13.42.42 0 0 0-.13.307v.876a.42.42 0 0 0 .13.307.42.42 0 0 0 .307.13h.876zm-3.5 0a.42.42 0 0 0 .308-.13.42.42 0 0 0 .13-.307v-.876a.42.42 0 0 0-.13-.307.42.42 0 0 0-.307-.13h-.876a.42.42 0 0 0-.307.13.42.42 0 0 0-.13.307v.876a.42.42 0 0 0 .13.307.42.42 0 0 0 .307.13h.876zm-3.5 0a.42.42 0 0 0 .308-.13.42.42 0 0 0 .13-.307v-.876a.42.42 0 0 0-.13-.307.42.42 0 0 0-.307-.13h-.876a.42.42 0 0 0-.307.13.42.42 0 0 0-.13.307v.876a.42.42 0 0 0 .13.307.42.42 0 0 0 .308.13h.874z"/>
    </g>
</svg>
