<svg xmlns="http://www.w3.org/2000/svg" width="14" height="14" viewBox="0 0 14 14">
  <path id="events-grey" d="M13.783,14a1.12,1.12,0,0,0,1.125-1.125V2.125A1.12,1.12,0,0,0,13.783,1H11.908V.562a.543.543,0,0,0-.164-.4.566.566,0,0,0-.8,0,.54.54,0,0,0-.164.4V1H5.033V.562a.543.543,0,0,0-.164-.4.566.566,0,0,0-.8,0,.54.54,0,0,0-.164.4V1H2.033a1.088,1.088,0,0,0-.8.328,1.084,1.084,0,0,0-.328.8v10.75A1.12,1.12,0,0,0,2.033,14Zm0-10.125H2.033V2.125H3.908v.313A.56.56,0,0,0,4.47,3a.56.56,0,0,0,.563-.562V2.125h5.75v.313A.56.56,0,0,0,11.345,3a.56.56,0,0,0,.563-.562V2.125h1.875Zm0,9H2.033V5h11.75ZM5.408,8a.5.5,0,0,0,0-1h-1a.5.5,0,0,0,0,1Zm3,0a.5.5,0,0,0,0-1h-1a.5.5,0,0,0,0,1Zm3,0a.5.5,0,0,0,0-1h-1a.5.5,0,0,0,0,1Zm-6,3.031a.5.5,0,0,0,.351-.851.477.477,0,0,0-.351-.149h-1a.5.5,0,0,0,0,1Zm3,0a.5.5,0,0,0,.351-.851.477.477,0,0,0-.351-.149h-1a.5.5,0,0,0,0,1Z" transform="translate(-0.908)" fill="#16c0ef"/>
</svg>
