<svg xmlns="http://www.w3.org/2000/svg" width="15" height="14" viewBox="0 0 15 14">
    <path fill="#7C8796" d="M13.783 14c.312 0 .578-.11.797-.328.218-.219.328-.485.328-.797V2.125c0-.313-.11-.578-.328-.797-.22-.219-.485-.328-.797-.328h-1.875V.562c0-.156-.055-.289-.164-.398C11.634.054 11.5 0 11.345 0c-.156 0-.289.055-.398.164-.11.11-.164.242-.164.398V1h-5.75V.562c0-.156-.055-.289-.164-.398C4.759.054 4.626 0 4.47 0c-.156 0-.289.055-.398.164-.11.11-.164.242-.164.398V1H2.033c-.313 0-.578.11-.797.328-.219.219-.328.484-.328.797v10.75c0 .313.11.578.328.797.219.219.484.328.797.328h11.75zm0-10.125H2.033v-1.75h1.875v.313c0 .156.054.289.164.398.11.11.242.164.398.164.156 0 .29-.055.399-.164.109-.11.164-.242.164-.398v-.313h5.75v.313c0 .156.054.289.164.398.11.11.242.164.398.164.156 0 .29-.055.399-.164.109-.11.164-.242.164-.398v-.313h1.875v1.75zm0 9H2.033V5h11.75v7.875zM5.408 8c.135 0 .252-.05.351-.148.1-.1.149-.217.149-.352 0-.135-.05-.253-.149-.352C5.66 7.05 5.543 7 5.408 7h-1c-.136 0-.253.05-.352.148-.099.1-.148.217-.148.352 0 .135.05.253.148.352.1.099.216.148.352.148h1zm3 0c.135 0 .252-.05.351-.148.1-.1.149-.217.149-.352 0-.135-.05-.253-.149-.352C8.66 7.05 8.543 7 8.408 7h-1c-.136 0-.253.05-.352.148-.099.1-.148.217-.148.352 0 .135.05.253.148.352.1.099.216.148.352.148h1zm3 0c.135 0 .252-.05.351-.148.1-.1.149-.217.149-.352 0-.135-.05-.253-.149-.352C11.66 7.05 11.543 7 11.408 7h-1c-.136 0-.253.05-.352.148-.099.1-.148.217-.148.352 0 .135.05.253.148.352.1.099.216.148.352.148h1zm-6 3.031c.135 0 .252-.05.351-.148.1-.1.149-.216.149-.352 0-.135-.05-.252-.149-.351-.099-.1-.216-.149-.351-.149h-1c-.136 0-.253.05-.352.149-.099.099-.148.216-.148.351 0 .136.05.253.148.352.1.099.216.148.352.148h1zm3 0c.135 0 .252-.05.351-.148.1-.1.149-.216.149-.352 0-.135-.05-.252-.149-.351-.099-.1-.216-.149-.351-.149h-1c-.136 0-.253.05-.352.149-.099.099-.148.216-.148.351 0 .136.05.253.148.352.1.099.216.148.352.148h1z"/>
</svg>
