<svg xmlns="http://www.w3.org/2000/svg" width="16" height="16" viewBox="0 0 16 16">
    <g fill="none" fill-rule="evenodd">
        <path d="M0 0H16V16H0z"/>
        <path fill="#FFF" fill-rule="nonzero" d="M6.953 8.328c.136 0 .258-.047.367-.14.11-.094.175-.209.196-.344 0-.052.015-.143.046-.274.032-.13.105-.338.22-.625.114-.286.254-.55.421-.789.73-1.073 1.802-1.614 3.219-1.625l.047.016c.156 0 .289-.055.398-.164.11-.11.164-.242.164-.399v-.656l1.578 1.485-1.578 1.312v-.531c0-.157-.054-.29-.164-.399-.11-.11-.242-.164-.398-.164-.156 0-.29.055-.399.164-.11.11-.164.242-.164.399v1.734c0 .23.11.396.328.5.073.031.151.047.235.047.135 0 .255-.042.36-.125l2.968-2.469c.125-.114.193-.25.203-.406 0-.177-.057-.323-.172-.438L11.86 1.61c-.177-.166-.38-.2-.609-.101-.23.099-.344.268-.344.508v1.421c-1.583.136-2.802.844-3.656 2.126-.469.708-.75 1.416-.844 2.125-.02.156.016.294.11.414.093.12.213.19.359.21.02.01.047.016.078.016zM12.25 14c.385 0 .716-.138.992-.414.276-.276.414-.607.414-.992V9.406c0-.156-.057-.286-.172-.39-.104-.115-.234-.172-.39-.172s-.29.054-.399.164c-.11.11-.164.242-.164.398v3.188c0 .083-.028.15-.086.203-.057.052-.122.078-.195.078H3.39c-.083 0-.153-.026-.21-.078-.058-.052-.086-.12-.086-.203V3.422c0-.083.028-.154.086-.211.057-.057.127-.086.21-.086h3.97c.156 0 .288-.055.398-.164.11-.11.164-.24.164-.39 0-.152-.055-.282-.164-.391-.11-.11-.242-.164-.399-.164H3.391c-.386 0-.717.135-.993.406-.276.27-.414.604-.414 1v9.172c0 .385.138.716.414.992.276.276.607.414.993.414h8.859z"/>
    </g>
</svg>
