<svg xmlns="http://www.w3.org/2000/svg" width="24" height="24" viewBox="0 0 24 24">
    <g fill="none" fill-rule="evenodd">
        <path d="M0 0h24v24H0z"/>
        <path fill="#BAC3CF" fill-rule="nonzero" d="M9.252 11.744c.352 0 .68-.09.984-.272.304-.181.544-.424.72-.728a1.96 1.96 0 0 0 .264-1 1.96 1.96 0 0 0-.264-1 2.005 2.005 0 0 0-.72-.728 1.93 1.93 0 0 0-1.976 0 2.029 2.029 0 0 0-1.008 1.728c0 .352.09.683.272.992a2.029 2.029 0 0 0 1.728 1.008zm5.312 0c.352 0 .682-.09.992-.272a2.029 2.029 0 0 0 1.008-1.728 2.029 2.029 0 0 0-2-2c-.352 0-.683.09-.992.272a2.029 2.029 0 0 0-1.008 1.728c0 .352.09.683.272.992a2.029 2.029 0 0 0 1.728 1.008zm4.688 5.312v-1.664c0-.48-.288-.912-.864-1.296-.491-.32-1.126-.581-1.904-.784-.704-.17-1.344-.256-1.92-.256-.267 0-.475.01-.624.032.874.63 1.312 1.397 1.312 2.304v1.664h4zm-5.344 0v-1.664c0-.48-.288-.912-.864-1.296-.48-.32-1.11-.581-1.888-.784a8.02 8.02 0 0 0-1.904-.256c-.576 0-1.216.085-1.92.256-.779.203-1.414.464-1.904.784-.576.384-.864.816-.864 1.296v1.664h9.344z"/>
    </g>
</svg>
