<svg xmlns="http://www.w3.org/2000/svg" width="16" height="14" viewBox="0 0 16 14">
    <path fill="#16C0EF" d="M8.954 14c.235 0 .442-.085.622-.256l6.134-6.082c.193-.185.29-.41.29-.673 0-.263-.097-.487-.29-.672L9.617.257C9.424.084 9.203 0 8.954 0c-.249 0-.46.096-.632.288-.173.192-.26.416-.26.672 0 .256.098.477.291.662l4.476 4.439H.934c-.263 0-.487.1-.674.299-.186.199-.272.434-.259.704.014.242.111.448.29.619.18.17.387.256.622.256h11.875l-4.476 4.439c-.18.185-.273.406-.28.662-.007.256.08.476.259.661.18.2.4.299.663.299z"/>
</svg>
