<svg xmlns="http://www.w3.org/2000/svg" width="18" height="18" viewBox="0 0 18 18">
    <path fill="#BAC3CF" d="M9 17.32c1.52 0 2.927-.38 4.22-1.14 1.253-.72 2.24-1.707 2.96-2.96.76-1.293 1.14-2.7 1.14-4.22 0-1.52-.38-2.927-1.14-4.22-.72-1.253-1.707-2.24-2.96-2.96C11.927 1.06 10.52.68 9 .68c-1.507 0-2.907.38-4.2 1.14-1.253.733-2.247 1.727-2.98 2.98C1.06 6.093.68 7.493.68 9c0 1.507.38 2.907 1.14 4.2.72 1.253 1.707 2.247 2.96 2.98 1.293.76 2.7 1.14 4.22 1.14zm0-1.64c-1.2 0-2.32-.307-3.36-.92-1.013-.587-1.813-1.387-2.4-2.4-.613-1.04-.92-2.16-.92-3.36 0-1.2.307-2.32.92-3.36.587-1.013 1.387-1.813 2.4-2.4C6.68 2.627 7.8 2.32 9 2.32c1.2 0 2.32.307 3.36.92 1.013.587 1.813 1.387 2.4 2.4.613 1.04.92 2.16.92 3.36 0 1.2-.307 2.32-.92 3.36-.587 1.013-1.387 1.813-2.4 2.4-1.04.613-2.16.92-3.36.92zm.82-4.18c0-.413.133-.8.4-1.16.147-.2.427-.483.84-.85s.7-.67.86-.91c.267-.387.4-.807.4-1.26 0-.6-.15-1.153-.45-1.66-.3-.507-.703-.91-1.21-1.21C10.153 4.15 9.6 4 9 4c-.6 0-1.153.15-1.66.45-.507.3-.91.703-1.21 1.21-.3.507-.45 1.06-.45 1.66h1.64c0-.453.167-.84.5-1.16.333-.32.727-.48 1.18-.48.453 0 .847.16 1.18.48.333.32.5.707.5 1.16 0 .307-.087.58-.26.82-.12.173-.327.373-.62.6-.387.307-.633.507-.74.6-.28.267-.487.547-.62.84-.173.387-.26.827-.26 1.32h1.64zm0 2.5v-1.68H8.18V14h1.64z" opacity=".78"/>
</svg>
