<svg xmlns="http://www.w3.org/2000/svg" width="28" height="30" viewBox="0 0 28 30">
    <g fill="none">
        <path fill="#F06321" d="M7.804 6.486c6.818-6.768 15.09-8.525 18.401-3.912 3.31 4.614.401 13.939-6.418 20.707-6.819 6.82-15.09 8.573-18.451 3.91C-1.922 22.53.987 13.252 7.804 6.486"/>
        <path fill="#AE282E" d="M12.317 2.875c-.752.552-1.504 1.203-2.255 1.907-5.967 5.914-8.476 14.036-5.516 18.098 3.057 4.06 10.377 2.557 16.494-3.41 3.31-3.208 5.516-6.92 6.418-10.377.25-2.557-.1-4.814-1.253-6.519-2.606-3.608-8.222-3.31-13.888.301"/>
        <path fill="#FFF" d="M20.94 3.627v.15c-.05.852-.551 1.905-1.453 2.807-1.354 1.303-3.158 1.804-3.912 1.055-.852-.802-.349-2.559 1.005-3.962 1.403-1.353 3.207-1.804 3.959-1.002.25.25.401.551.401.952m-5.212 23.012c-3.21 2.406-6.519 3.612-9.729 3.11 1.354.05 2.459-1.456 3.36-3.46.903-2.055 1.404-3.96 1.855-5.767.652-2.856.702-4.861.351-5.312-.551-.705-1.754-.552-3.16.25-.702.401-1.604.15-.549-1.152 1.103-1.304 5.363-4.414 6.867-4.915 1.706-.45 3.61.2 2.96 2.055-.454 1.353-6.368 16.795-1.955 15.191"/>
    </g>
</svg>
