<svg xmlns="http://www.w3.org/2000/svg" width="24" height="24" viewBox="0 0 24 24">
    <g fill="none" fill-rule="evenodd">
        <path d="M11 0H35V24H11z" transform="translate(-11)"/>
        <path fill="#16C0EF" fill-rule="nonzero" d="M33.5 23c.429 0 .786-.146 1.071-.438.286-.291.429-.656.429-1.093V3.53c0-.437-.143-.802-.429-1.094C34.286 2.147 33.93 2 33.5 2h-21c-.429 0-.786.146-1.071.438-.286.291-.429.656-.429 1.093V21.47c0 .437.143.802.429 1.093.285.292.642.438 1.071.438h21zm-.214-4.375l-5.304-5.797c-.178-.219-.41-.328-.696-.328-.215 0-.447.091-.697.273l-.964.875c-.25.183-.464.274-.643.274-.178 0-.375-.073-.59-.219l-.213-.219-2.893-3.226c-.215-.255-.518-.383-.911-.383-.321 0-.625.146-.91.438l-6.75 8.312V4.406c.07-.437.303-.656.696-.656h19.178c.465 0 .697.219.697.656v14.219zM29 10.75c.714 0 1.321-.255 1.821-.766.5-.51.75-1.13.75-1.859 0-.73-.25-1.349-.75-1.86-.5-.51-1.107-.765-1.821-.765s-1.321.255-1.821.766c-.5.51-.75 1.13-.75 1.859 0 .73.25 1.349.75 1.86.5.51 1.107.765 1.821.765z" transform="translate(-11)"/>
    </g>
</svg>
