<svg xmlns="http://www.w3.org/2000/svg" width="26" height="24" viewBox="0 0 26 24">
    <g fill="none" fill-rule="evenodd">
        <path fill="#FFFFFE" d="M23.713 12.82l1.913.082c-1.136 7.953-8.685 8.536-12.486.834l.5-.834c3.94 2.499 8.546 3.442 10.073-.082"/>
        <path fill="#D8232A" d="M10.726 1.247L14.554 0 14.722 21.645 10.558 23.06 10.726 1.247"/>
        <path fill="#FFFFFE" d="M23.796 9.905h1.747c-.673-3.641-2.518-5.93-6.076-6.242-2.97.056-5.494 1.777-7.575 5.16-1.379 2.081-3.57 5.363-6.248 5.75-3.22.464-5.09-2.369-3.699-4.813.846-1.485 3.129-2.106 4.725-1.955l.03.002c1.463.147 2.81.522 3.965 1.225l.025-3.067C9.964 5.35 9.37 4.73 8.52 4.307c-1.153-.576-2.278-.763-3.372-.561C.289 4.813-.596 8.782.32 14.069c1.886 6.132 7.769 6.604 11.155 2.664 2.316-2.774 8.074-12.145 12.32-6.828"/>
    </g>
</svg>
