<svg xmlns="http://www.w3.org/2000/svg" width="24" height="24" viewBox="0 0 24 24">
    <g fill="none" fill-rule="evenodd">
        <path d="M0 0H24V24H0z"/>
        <path fill="#FB4F6D" fill-rule="nonzero" d="M12 20.78l1.22-1.06c1.787-1.627 3.033-2.807 3.74-3.54 1.133-1.147 1.96-2.167 2.48-3.06.587-1.027.88-2.047.88-3.06 0-.84-.2-1.61-.6-2.31-.4-.7-.95-1.25-1.65-1.65-.7-.4-1.47-.6-2.31-.6-.72 0-1.413.16-2.08.48-.667.32-1.227.747-1.68 1.28-.453-.533-1.013-.96-1.68-1.28-.667-.32-1.353-.48-2.06-.48-.853 0-1.627.2-2.32.6-.693.4-1.243.95-1.65 1.65-.407.7-.61 1.47-.61 2.31 0 1.013.3 2.027.9 3.04.507.893 1.327 1.913 2.46 3.06.693.707 1.947 1.88 3.76 3.52l1.2 1.1z"/>
    </g>
</svg>
