<svg xmlns="http://www.w3.org/2000/svg" width="24" height="24" viewBox="0 0 24 24">
    <g fill="none" fill-rule="evenodd">
        <path d="M0 0h24v24H0z"/>
        <path fill="#7C8796" fill-rule="nonzero" d="M12 20.78l1.22-1.1c1.813-1.653 3.06-2.827 3.74-3.52 1.133-1.147 1.96-2.167 2.48-3.06.587-1.027.88-2.04.88-3.04 0-.84-.2-1.61-.6-2.31-.4-.7-.95-1.25-1.65-1.65-.7-.4-1.47-.6-2.31-.6-.72 0-1.413.16-2.08.48A5.028 5.028 0 0 0 12 7.26a5.028 5.028 0 0 0-1.68-1.28 4.71 4.71 0 0 0-2.06-.48c-.853 0-1.627.2-2.32.6-.693.4-1.243.95-1.65 1.65-.407.7-.61 1.47-.61 2.31 0 1.013.3 2.033.9 3.06.507.893 1.327 1.913 2.46 3.06.72.733 1.973 1.913 3.76 3.54l1.2 1.06zm0-2.24l-.08-.08c-1.653-1.48-2.813-2.553-3.48-3.22-1.04-1.04-1.807-1.947-2.3-2.72-.547-.867-.82-1.687-.82-2.46 0-.547.127-1.04.38-1.48.253-.44.603-.783 1.05-1.03a3.07 3.07 0 0 1 1.51-.37c.64 0 1.24.183 1.8.55.56.367.947.837 1.16 1.41h1.56c.227-.573.617-1.043 1.17-1.41a3.211 3.211 0 0 1 1.81-.55c.56 0 1.06.123 1.5.37.44.247.787.59 1.04 1.03.253.44.38.933.38 1.48 0 .773-.273 1.593-.82 2.46-.493.773-1.26 1.68-2.3 2.72-.667.667-1.827 1.74-3.48 3.22l-.08.08z"/>
    </g>
</svg>
