<svg xmlns="http://www.w3.org/2000/svg" width="14" height="14" viewBox="0 0 14 14">
    <g fill="none" fill-rule="evenodd">
        <path d="M0 0H16V16H0z" transform="translate(-1 -1)"/>
        <path fill="#6A6A6A" fill-rule="nonzero" d="M10.72 9.345c.15 0 .28-.05.39-.15l2.675-2.675c.588-.598.882-1.315.882-2.152 0-.837-.297-1.552-.89-2.145s-1.308-.89-2.145-.89-1.554.3-2.152.897L6.804 4.906c-.1.1-.15.224-.15.374 0 .149.053.276.158.38.104.105.231.158.38.158.15 0 .275-.05.375-.15l2.675-2.675c.389-.39.852-.583 1.39-.583.538 0 1 .191 1.383.575.384.384.575.847.575 1.39 0 .543-.194 1.004-.583 1.383l-2.66 2.675c-.11.1-.165.225-.165.374 0 .15.053.277.157.381.105.105.232.157.381.157zm-6.352 5.322c.837 0 1.554-.294 2.152-.882l2.676-2.676c.1-.11.15-.239.15-.389 0-.149-.053-.276-.158-.38-.104-.105-.231-.158-.38-.158-.15 0-.275.055-.375.165l-2.675 2.675c-.389.38-.852.568-1.39.568-.538 0-.997-.189-1.375-.568-.39-.388-.583-.852-.583-1.39 0-.538.194-1.001.583-1.39l2.66-2.675c.11-.1.165-.225.165-.374 0-.15-.053-.277-.157-.381-.105-.105-.232-.157-.381-.157-.15 0-.275.055-.374.164L2.23 9.48c-.598.599-.897 1.316-.897 2.153s.297 1.552.89 2.145 1.308.89 2.145.89zm2.855-5.322c.15 0 .274-.055.373-.164l1.525-1.525c.11-.1.165-.224.165-.373 0-.15-.053-.277-.157-.382-.105-.104-.232-.157-.382-.157s-.274.055-.373.165L6.849 8.433c-.11.1-.164.225-.164.374 0 .15.052.277.157.381.104.105.231.157.38.157z" transform="translate(-1 -1)"/>
    </g>
</svg>
