<svg xmlns="http://www.w3.org/2000/svg" width="10" height="13" viewBox="0 0 10 13">
    <path fill="#5D677E" d="M5.095 12.75c.156 0 .293-.049.41-.146.117-.098.176-.15.176-.159.383-.437.793-.937 1.23-1.5.438-.562.844-1.158 1.219-1.787.375-.629.686-1.27.932-1.922.246-.652.369-1.29.369-1.916 0-.617-.1-1.203-.3-1.758-.198-.554-.487-1.04-.866-1.458-.38-.418-.846-.749-1.4-.99C6.31.87 5.68.75 4.977.75c-.618 0-1.202.121-1.752.363-.551.242-1.034.573-1.448.99-.414.418-.742.905-.984 1.46-.242.554-.363 1.14-.363 1.757 0 .649.135 1.297.404 1.946.27.648.606 1.279 1.008 1.892s.84 1.197 1.312 1.752c.473.555.912 1.067 1.319 1.535 0 .008.056.06.17.159.113.097.252.146.416.146h.035zm-.024-.762l-.046-.047-.2-.222c-.383-.446-.789-.924-1.218-1.436-.43-.512-.825-1.043-1.184-1.594-.36-.55-.656-1.11-.89-1.681-.235-.57-.352-1.133-.352-1.688 0-.515.101-1.006.304-1.47.204-.465.477-.871.82-1.22.345-.347.747-.622 1.208-.825.46-.203.949-.305 1.465-.305.64 0 1.193.11 1.658.328.465.219.85.508 1.154.867.305.36.53.768.674 1.225.145.457.217.924.217 1.4 0 .422-.074.877-.223 1.366-.148.488-.371 1.007-.668 1.558-.297.55-.668 1.135-1.113 1.752-.445.617-.965 1.266-1.559 1.945 0 .008-.006.016-.017.024-.012.008-.022.015-.03.023zm-.129-4.476c.625 0 1.157-.219 1.594-.657.438-.437.656-.968.656-1.593 0-.617-.218-1.147-.656-1.588-.437-.442-.969-.662-1.594-.662-.617 0-1.146.22-1.587.662-.442.441-.663.97-.663 1.588 0 .625.221 1.156.663 1.593.441.438.97.657 1.587.657zm0-.75c-.414 0-.769-.149-1.066-.446-.297-.296-.445-.652-.445-1.066 0-.414.146-.768.44-1.06.292-.294.646-.44 1.06-.44.414 0 .767.146 1.06.44.293.292.44.646.44 1.06 0 .414-.145.77-.434 1.066-.289.297-.64.446-1.055.446z"/>
</svg>
