<svg xmlns="http://www.w3.org/2000/svg" width="24" height="24" viewBox="0 0 24 24">
    <g fill="none" fill-rule="evenodd">
        <path d="M0 0h24v24H0z"/>
        <path fill="#7C8796" fill-rule="nonzero" stroke="#7C8796" stroke-width=".25" d="M11.99 22c.17 0 .33-.052.48-.155a24.737 24.737 0 0 0 4.338-4.257c.955-1.213 1.698-2.425 2.23-3.637.641-1.478.962-2.934.962-4.368 0-1.02-.218-2.003-.655-2.949a7.613 7.613 0 0 0-1.76-2.417 8.633 8.633 0 0 0-2.557-1.64A8.136 8.136 0 0 0 12 2c-1.05 0-2.066.192-3.049.576-.94.4-1.786.947-2.537 1.641a7.613 7.613 0 0 0-1.76 2.417A6.962 6.962 0 0 0 4 9.584c0 1.433.32 2.889.962 4.367.532 1.227 1.275 2.44 2.23 3.637a23.743 23.743 0 0 0 4.337 4.257c.137.103.29.155.46.155zm.01-1.752a22.43 22.43 0 0 1-3.703-3.68c-.86-1.109-1.528-2.203-2.005-3.282-.546-1.256-.819-2.49-.819-3.703 0-.783.164-1.537.491-2.261a6.389 6.389 0 0 1 1.412-1.907 6.93 6.93 0 0 1 2.087-1.353A6.811 6.811 0 0 1 12 3.574c.873 0 1.719.163 2.537.488a6.93 6.93 0 0 1 2.087 1.353 5.956 5.956 0 0 1 1.412 1.907c.327.739.49 1.5.49 2.283 0 1.198-.272 2.425-.818 3.681-.463 1.08-1.132 2.173-2.005 3.282A22.43 22.43 0 0 1 12 20.248zm0-5.61c1.146 0 2.121-.435 2.926-1.308.805-.872 1.207-1.925 1.207-3.16 0-1.234-.402-2.287-1.207-3.159-.805-.872-1.78-1.308-2.926-1.308-1.146 0-2.121.436-2.926 1.308-.805.872-1.207 1.925-1.207 3.16 0 1.234.402 2.287 1.207 3.16.805.872 1.78 1.308 2.926 1.308zm0-1.574c-.737 0-1.364-.28-1.882-.842-.519-.562-.778-1.242-.778-2.04s.26-1.482.778-2.051c.518-.57 1.145-.854 1.882-.854.737 0 1.364.285 1.882.854.519.569.778 1.253.778 2.05 0 .799-.26 1.479-.778 2.04-.518.562-1.145.843-1.882.843z"/>
    </g>
</svg>
