<svg xmlns="http://www.w3.org/2000/svg" width="16" height="16" viewBox="0 0 16 16">
    <g fill="none" fill-rule="evenodd">
        <path d="M0 0H16V16H0z"/>
        <path fill="#FFF" fill-rule="nonzero" d="M12 15.056c.363 0 .677-.128.944-.384.267-.256.4-.565.4-.928V7.056c0-.363-.133-.672-.4-.928s-.581-.384-.944-.384h-.656V4.4c0-.608-.15-1.168-.448-1.68-.299-.512-.704-.917-1.216-1.216-.512-.299-1.072-.448-1.68-.448-.608 0-1.168.15-1.68.448-.512.299-.917.704-1.216 1.216-.299.512-.448 1.072-.448 1.68v1.344H4c-.363 0-.677.128-.944.384-.267.256-.4.565-.4.928v6.688c0 .363.133.672.4.928s.581.384.944.384h8zm-1.936-9.312H5.936V4.4c0-.363.093-.704.28-1.024.187-.32.44-.573.76-.76.32-.187.661-.28 1.024-.28s.704.093 1.024.28c.32.187.573.44.76.76.187.32.28.661.28 1.024v1.344zm-2.064 6c-.363 0-.677-.133-.944-.4-.267-.267-.4-.581-.4-.944s.133-.677.4-.944c.267-.267.581-.4.944-.4s.677.133.944.4c.267.267.4.581.4.944s-.133.677-.4.944c-.267.267-.581.4-.944.4z"/>
    </g>
</svg>
