<svg xmlns="http://www.w3.org/2000/svg" width="24" height="24" viewBox="0 0 24 24">
    <g fill="none" fill-rule="evenodd">
        <path d="M0 0h24v24H0z"/>
        <path fill="#7C8796" fill-rule="nonzero" d="M12 14.616c.544 0 1.016-.2 1.416-.6.4-.4.6-.872.6-1.416 0-.544-.2-1.016-.6-1.416-.4-.4-.872-.6-1.416-.6-.544 0-1.016.2-1.416.6-.4.4-.6.872-.6 1.416 0 .544.2 1.016.6 1.416.4.4.872.6 1.416.6zm6 0c.544 0 1.016-.2 1.416-.6.4-.4.6-.872.6-1.416 0-.544-.2-1.016-.6-1.416-.4-.4-.872-.6-1.416-.6-.544 0-1.016.2-1.416.6-.4.4-.6.872-.6 1.416 0 .544.2 1.016.6 1.416.4.4.872.6 1.416.6zm-12 0c.544 0 1.016-.2 1.416-.6.4-.4.6-.872.6-1.416 0-.544-.2-1.016-.6-1.416-.4-.4-.872-.6-1.416-.6-.544 0-1.016.2-1.416.6-.4.4-.6.872-.6 1.416 0 .544.2 1.016.6 1.416.4.4.872.6 1.416.6z"/>
    </g>
</svg>
