<svg xmlns="http://www.w3.org/2000/svg" width="24" height="24" viewBox="0 0 24 24">
    <g fill="none" fill-rule="evenodd">
        <path d="M0 0h24v24H0z"/>
        <path fill="#BAC3CF" fill-rule="nonzero" d="M15.908 19.056c.362 0 .677-.128.944-.384.266-.256.4-.565.4-.928v-6.688a1.24 1.24 0 0 0-.4-.928 1.318 1.318 0 0 0-.944-.384h-.656V8.4c0-.608-.15-1.168-.448-1.68a3.324 3.324 0 0 0-1.216-1.216 3.275 3.275 0 0 0-1.68-.448c-.608 0-1.168.15-1.68.448A3.324 3.324 0 0 0 9.012 6.72a3.275 3.275 0 0 0-.448 1.68v1.344h-.656c-.363 0-.678.128-.944.384a1.24 1.24 0 0 0-.4.928v6.688c0 .363.133.672.4.928.266.256.581.384.944.384h8zm-1.936-9.312H9.844V8.4a2 2 0 0 1 .28-1.024c.186-.32.44-.573.76-.76a2 2 0 0 1 1.024-.28 2 2 0 0 1 1.024.28c.32.187.573.44.76.76a2 2 0 0 1 .28 1.024v1.344zm-2.064 6c-.363 0-.678-.133-.944-.4a1.291 1.291 0 0 1-.4-.944c0-.363.133-.677.4-.944.266-.267.581-.4.944-.4.362 0 .677.133.944.4.266.267.4.581.4.944s-.134.677-.4.944c-.267.267-.582.4-.944.4z"/>
    </g>
</svg>
