<svg xmlns="http://www.w3.org/2000/svg" width="16" height="12" viewBox="0 0 16 12">
  <path id="org-grey" d="M15.783,12a1.12,1.12,0,0,0,1.125-1.125V1.125a1.088,1.088,0,0,0-.328-.8,1.091,1.091,0,0,0-.8-.328H2.033a1.088,1.088,0,0,0-.8.328,1.084,1.084,0,0,0-.328.8v9.75A1.12,1.12,0,0,0,2.033,12Zm0-1.125H2.033V1.125h13.75Zm-9-.875A1.12,1.12,0,0,0,7.908,8.875V7.5a2.463,2.463,0,0,0-.3-1.188,2.531,2.531,0,0,0-.8-.89A1.908,1.908,0,0,0,7.408,4a1.93,1.93,0,0,0-.586-1.414A1.928,1.928,0,0,0,5.408,2a1.925,1.925,0,0,0-1.414.586A1.925,1.925,0,0,0,3.408,4,1.91,1.91,0,0,0,4,5.422a2.519,2.519,0,0,0-.8.89,2.449,2.449,0,0,0-.3,1.188V8.875A1.12,1.12,0,0,0,4.033,10Zm7.562-6a.564.564,0,0,0,.4-.961.543.543,0,0,0-.4-.164H9.47a.564.564,0,0,0-.4.961A.54.54,0,0,0,9.47,4h4.875Zm-8.937.875A.881.881,0,0,1,4.533,4a.829.829,0,0,1,.25-.61.858.858,0,0,1,.625-.265A.881.881,0,0,1,6.283,4a.881.881,0,0,1-.875.875Zm7.937,1.688a.563.563,0,1,0,0-1.126H9.47a.563.563,0,0,0,0,1.126h3.875ZM6.7,8.875H4.11A.069.069,0,0,1,4.032,8.8V7.5A1.386,1.386,0,0,1,5.407,6.125,1.388,1.388,0,0,1,6.782,7.5V8.8a.069.069,0,0,1-.078.078Zm5.64.25a.563.563,0,1,0,0-1.125H9.47a.563.563,0,1,0,0,1.125h2.875Z" transform="translate(-0.908)" fill="#16c0ef"/>
</svg>
