<svg xmlns="http://www.w3.org/2000/svg" width="17" height="12" viewBox="0 0 17 12">
    <path fill="#7C8796" d="M15.783 12c.312 0 .578-.11.797-.328.218-.219.328-.485.328-.797v-9.75c0-.313-.11-.578-.328-.797C16.36.11 16.095 0 15.783 0H2.033c-.313 0-.578.11-.797.328-.219.219-.328.484-.328.797v9.75c0 .313.11.578.328.797.219.219.484.328.797.328h13.75zm0-1.125H2.033v-9.75h13.75v9.75zm-9-.875c.312 0 .578-.11.797-.328.218-.219.328-.485.328-.797V7.5c0-.427-.1-.823-.297-1.188-.198-.364-.464-.661-.797-.89.396-.386.594-.86.594-1.422 0-.552-.196-1.023-.586-1.414C6.432 2.196 5.96 2 5.408 2c-.552 0-1.024.195-1.414.586-.391.39-.586.862-.586 1.414 0 .563.198 1.036.593 1.422-.333.229-.599.526-.796.89-.198.365-.297.76-.297 1.188v1.375c0 .313.11.578.328.797.219.219.484.328.797.328h2.75zm7.562-6c.156 0 .29-.055.399-.164.109-.11.164-.242.164-.398 0-.157-.055-.29-.164-.399-.11-.11-.243-.164-.399-.164H9.47c-.156 0-.289.055-.398.164-.11.11-.164.242-.164.398 0 .157.054.29.164.399.11.11.242.164.398.164h4.875zm-8.937.875c-.24 0-.446-.086-.617-.258-.172-.172-.258-.377-.258-.617s.083-.443.25-.61c.177-.176.385-.265.625-.265s.445.086.617.258c.172.172.258.377.258.617s-.086.445-.258.617c-.172.172-.378.258-.617.258zm7.937 1.688c.156 0 .29-.055.399-.165.109-.109.164-.242.164-.398 0-.156-.055-.29-.164-.398-.11-.11-.243-.165-.399-.165H9.47c-.156 0-.289.055-.398.165-.11.109-.164.242-.164.398 0 .156.054.29.164.398.11.11.242.165.398.165h3.875zm-6.64 2.312H4.11c-.052 0-.078-.026-.078-.078V7.5c0-.375.135-.698.406-.969.27-.27.594-.406.969-.406s.698.135.968.406c.271.271.407.594.407.969v1.297c0 .052-.026.078-.078.078zm5.64.25c.156 0 .29-.055.399-.164.109-.11.164-.242.164-.399 0-.156-.055-.289-.164-.398-.11-.11-.243-.164-.399-.164H9.47c-.156 0-.289.055-.398.164-.11.11-.164.242-.164.399 0 .156.054.289.164.398.11.11.242.164.398.164h2.875z"/>
</svg>
