<svg xmlns="http://www.w3.org/2000/svg" width="16" height="16" viewBox="0 0 16 16">
  <path id="people-grey" d="M16.064,13.486a.822.822,0,0,0,.594-.242.806.806,0,0,0,.25-.6V11.395a.693.693,0,0,0-.422-.609l-.422-.233L12.876,8.8a3.477,3.477,0,0,0,1.2-1.834,7.221,7.221,0,0,0,.328-1.9V2.965A2.012,2.012,0,0,0,14.08,1.9a3.725,3.725,0,0,0-.86-.952A4.845,4.845,0,0,0,12.01.258a3.694,3.694,0,0,0-1.384-.274A3.846,3.846,0,0,0,8.861.422,4.489,4.489,0,0,0,7.455,1.5l.64.031a2.416,2.416,0,0,1,.625.11A3.19,3.19,0,0,1,9.6,1.17,3.1,3.1,0,0,1,10.626,1a2.941,2.941,0,0,1,1.938.7q.843.7.844,1.265V5.074a5.915,5.915,0,0,1-.258,1.505,2.719,2.719,0,0,1-.9,1.444.974.974,0,0,0-.3.39,1.048,1.048,0,0,0,.086.945,1.044,1.044,0,0,0,.36.336l3.187,1.733a.432.432,0,0,0,.054.023.105.105,0,0,1,.04.023.422.422,0,0,1,.124.055l.11.07v.89H13.892a1.007,1.007,0,0,1,.32.422,5.856,5.856,0,0,1,.2.577h1.656Zm-3.5,2.5a.822.822,0,0,0,.594-.242.806.806,0,0,0,.25-.6V13.877a.692.692,0,0,0-.422-.609l-.422-.234L9.424,11.3A3.427,3.427,0,0,0,10.6,9.46a7.642,7.642,0,0,0,.305-1.9V5.448a2.006,2.006,0,0,0-.32-1.054,3.689,3.689,0,0,0-.844-.944,4.588,4.588,0,0,0-1.2-.686,3.67,3.67,0,0,0-2.742,0A4.642,4.642,0,0,0,4.6,3.45a3.741,3.741,0,0,0-.86.944,1.967,1.967,0,0,0-.328,1.054V7.555a7.024,7.024,0,0,0,.343,1.857,3.617,3.617,0,0,0,1.235,1.873L1.751,13.034l-.421.25a.706.706,0,0,0-.422.593v1.264a.8.8,0,0,0,.25.6.824.824,0,0,0,.593.242Zm-.156-1H1.908V14.1l.117-.079a.426.426,0,0,1,.133-.062.158.158,0,0,1,.03-.024.079.079,0,0,1,.032-.008L5.455,12.16a.934.934,0,0,0,.359-.32A1.048,1.048,0,0,0,5.9,10.9a1.028,1.028,0,0,0-.29-.39,2.768,2.768,0,0,1-.921-1.429,5.482,5.482,0,0,1-.281-1.522V5.449q0-.545.851-1.249a2.93,2.93,0,0,1,1.914-.7,2.848,2.848,0,0,1,1.914.7q.82.7.82,1.249V7.556a6.457,6.457,0,0,1-.234,1.521A2.526,2.526,0,0,1,8.8,10.506a.967.967,0,0,0-.3.39.9.9,0,0,0-.07.485.91.91,0,0,0,.156.46,1.04,1.04,0,0,0,.359.336l3.14,1.733a.348.348,0,0,1,.055.031.083.083,0,0,0,.04.016l.124.062a.437.437,0,0,1,.11.078Z" transform="translate(-0.908 0.016)" fill="#16c0ef"/>
</svg>
