<svg xmlns="http://www.w3.org/2000/svg" width="17" height="16" viewBox="0 0 17 16">
    <path fill="#7C8796" d="M16.064 13.5c.23 0 .427-.08.594-.242.166-.162.25-.362.25-.602v-1.25c0-.25-.14-.453-.422-.61l-.422-.233-3.188-1.75c.584-.459.985-1.07 1.204-1.836.218-.766.328-1.399.328-1.899v-2.11c0-.353-.11-.708-.328-1.062-.22-.354-.506-.672-.86-.953-.354-.281-.758-.513-1.21-.695-.454-.182-.915-.274-1.384-.274-.604 0-1.192.146-1.765.438-.573.292-1.042.65-1.406 1.078l.64.031c.219.01.427.047.625.11.26-.198.555-.355.883-.47.328-.114.67-.171 1.023-.171.73 0 1.375.234 1.938.703.562.469.844.89.844 1.266v2.11c0 .385-.086.887-.258 1.507-.172.62-.471 1.101-.899 1.445-.135.104-.237.235-.304.39-.068.157-.091.319-.07.485.01.167.062.32.156.461.093.14.213.253.36.336l3.187 1.735c.02.01.039.018.054.023.016.005.029.013.04.023.041.01.083.029.124.055l.11.07v.891h-2.016c.146.115.253.255.32.422.068.167.133.36.196.578h1.656zm-3.5 2.5c.23 0 .427-.08.594-.242.166-.162.25-.362.25-.602v-1.265c0-.25-.14-.454-.422-.61l-.422-.234-3.14-1.735c.583-.468.976-1.083 1.179-1.843.203-.76.305-1.396.305-1.906v-2.11c0-.354-.107-.706-.32-1.055-.214-.349-.495-.664-.844-.945-.35-.281-.748-.51-1.196-.687C8.1 2.589 7.642 2.5 7.173 2.5c-.458 0-.914.089-1.367.266-.453.177-.857.406-1.21.687-.355.281-.641.596-.86.945-.219.35-.328.701-.328 1.055v2.11c0 .458.114 1.078.343 1.859.23.781.641 1.406 1.235 1.875l-3.235 1.75-.421.25c-.282.167-.422.364-.422.594v1.265c0 .24.083.44.25.602.166.161.364.242.593.242h10.813zm-.156-1h-10.5v-.89l.117-.079c.047-.031.091-.052.133-.062.01-.01.02-.018.03-.024.011-.005.022-.008.032-.008l3.235-1.765c.145-.073.265-.18.359-.32.094-.141.146-.295.156-.461.021-.167-.002-.329-.07-.485-.068-.156-.164-.286-.29-.39-.426-.334-.734-.81-.921-1.43-.188-.62-.281-1.128-.281-1.524V5.454c0-.364.284-.781.851-1.25.568-.469 1.206-.703 1.914-.703.73 0 1.368.234 1.914.703.547.469.82.886.82 1.25v2.11c0 .395-.077.903-.234 1.523-.156.62-.448 1.096-.875 1.43-.135.104-.237.234-.304.39-.068.156-.092.318-.07.485.01.166.062.32.156.46.093.141.213.253.359.336l3.14 1.735c.021.01.04.02.055.031.016.01.029.016.04.016l.124.062c.042.021.078.047.11.078V15z"/>
</svg>
