<svg xmlns="http://www.w3.org/2000/svg" width="48" height="48" viewBox="0 0 48 48">
    <g fill="none" fill-rule="evenodd">
        <path d="M0 0h48v48H0z"/>
        <path fill="#5D677E" fill-rule="nonzero" d="M16.427 33.25c.271 0 .474-.068.61-.203.406-.406.406-.813 0-1.219l-6.805-7.515h28.946c.541 0 .812-.271.812-.813 0-.542-.27-.813-.813-.813H10.233l6.805-7.515c.406-.406.406-.813 0-1.219-.406-.406-.813-.406-1.219 0l-8.125 8.938c-.135.135-.203.338-.203.609 0 .27.068.474.203.61.068.067 2.776 3.046 8.125 8.937.136.135.339.203.61.203z"/>
    </g>
</svg>
