<svg xmlns="http://www.w3.org/2000/svg" width="24" height="24" viewBox="0 0 24 24">
    <g fill="none" fill-rule="evenodd">
        <path d="M0 0H24V24H0z"/>
        <path fill="#BAC3CF" fill-rule="nonzero" d="M21.625 22.666c.372 0 .695-.136.967-.408.272-.272.408-.595.408-.967V6.854c0-.373-.136-.695-.408-.967a1.321 1.321 0 00-.967-.408h-5.5V4.146a2 2 0 00-.602-1.45 1.972 1.972 0 00-1.46-.612H9.936c-.572 0-1.06.204-1.46.612a2 2 0 00-.602 1.45V5.48h-5.5c-.372 0-.695.136-.967.408A1.321 1.321 0 001 6.854V21.29c0 .372.136.695.408.967.272.272.595.408.967.408h19.25zM14.75 5.479h-5.5V4.146a.66.66 0 01.204-.483.66.66 0 01.483-.204h4.126a.68.68 0 01.688.688l-.001 1.332zm-4.813 6.208H2.375V6.854h19.25v4.833h-7.563v-.708c0-.373-.136-.695-.408-.967a1.321 1.321 0 00-.966-.408h-1.376c-.386 0-.712.136-.977.408a1.34 1.34 0 00-.398.967v.709zm2.75 2.75h-1.374V10.98h1.374v3.459zm8.938 6.854H2.375v-8.229h7.563v1.376c0 .386.132.712.397.977s.59.398.977.398h1.376c.372 0 .694-.133.966-.398s.409-.59.409-.977v-1.376h7.562v8.229z"/>
    </g>
</svg>
