<svg xmlns="http://www.w3.org/2000/svg" width="12" height="16" viewBox="0 0 12 16">
  <path id="project-grey" d="M7.875,13A1.12,1.12,0,0,0,9,11.875v-.969a5.8,5.8,0,0,0,2.188-2.117A5.618,5.618,0,0,0,12,5.844a5.557,5.557,0,0,0-1.758-4.133A5.86,5.86,0,0,0,6,0,5.863,5.863,0,0,0,1.758,1.71,5.564,5.564,0,0,0,0,5.845,5.6,5.6,0,0,0,.813,8.79,5.8,5.8,0,0,0,3,10.907v.969A1.12,1.12,0,0,0,4.125,13h3.75Zm0-1.125H4.125V10.2l-.016-.008-.015-.008A4.861,4.861,0,0,1,1.5,7.672a4.643,4.643,0,0,1,0-3.656A4.868,4.868,0,0,1,4.094,1.5a5.031,5.031,0,0,1,3.812,0A4.868,4.868,0,0,1,10.5,4.016a4.643,4.643,0,0,1,0,3.656,4.861,4.861,0,0,1-2.594,2.515l0,0-.027.014v1.672ZM8,16a.563.563,0,1,0,0-1.125H4A.563.563,0,1,0,4,16Z" fill="#16c0ef"/>
</svg>
