<svg xmlns="http://www.w3.org/2000/svg" width="12" height="16" viewBox="0 0 12 16">
    <path fill="#7C8796" d="M7.875 13c.313 0 .578-.11.797-.328.219-.219.328-.485.328-.797v-.969c.917-.51 1.646-1.216 2.188-2.117.541-.901.812-1.883.812-2.945 0-1.615-.586-2.992-1.758-4.133C9.07.57 7.656 0 6 0 4.344 0 2.93.57 1.758 1.71.586 2.853 0 4.23 0 5.845c0 1.062.27 2.044.813 2.945.541.901 1.27 1.607 2.187 2.117v.969c0 .313.11.578.328.797.219.219.485.328.797.328h3.75zm0-1.125h-3.75v-1.672l-.016-.008-.015-.008c-.584-.24-1.1-.578-1.547-1.015-.448-.438-.797-.938-1.047-1.5-.25-.583-.375-1.193-.375-1.828 0-.636.125-1.245.375-1.828.25-.563.599-1.063 1.047-1.5.448-.438.963-.776 1.547-1.016.604-.25 1.24-.375 1.906-.375.667 0 1.302.125 1.906.375.584.24 1.1.578 1.547 1.016.448.437.797.937 1.047 1.5.25.583.375 1.192.375 1.828 0 .635-.125 1.245-.375 1.828-.25.562-.599 1.062-1.047 1.5-.448.437-.963.776-1.547 1.015l-.004.002-.027.014v1.672zM8 16c.156 0 .29-.055.398-.164.11-.11.165-.242.165-.399 0-.156-.055-.289-.165-.398-.109-.11-.242-.164-.398-.164H4c-.156 0-.29.055-.398.164-.11.11-.164.242-.164.399 0 .156.054.289.164.398.109.11.242.164.398.164h4z"/>
</svg>
