<svg xmlns="http://www.w3.org/2000/svg" width="20" height="20" viewBox="0 0 20 20">
    <g fill="none" fill-rule="evenodd">
        <path d="M0 0h20v20H0z"/>
        <path fill="#7C8796" fill-rule="nonzero" d="M11.783 15c.312 0 .578-.11.797-.328.218-.219.328-.485.328-.797v-.969a5.807 5.807 0 0 0 2.187-2.117 5.612 5.612 0 0 0 .813-2.945c0-1.615-.586-2.992-1.758-4.133C12.978 2.57 11.564 2 9.908 2c-1.657 0-3.07.57-4.242 1.71-1.172 1.142-1.758 2.52-1.758 4.134 0 1.062.27 2.044.812 2.945a5.807 5.807 0 0 0 2.188 2.117v.969c0 .313.11.578.328.797.219.219.484.328.797.328h3.75zm0-1.125h-3.75v-1.672l-.016-.008-.016-.008a4.806 4.806 0 0 1-1.546-1.015 4.813 4.813 0 0 1-1.047-1.5 4.594 4.594 0 0 1-.375-1.828c0-.636.125-1.245.375-1.828a4.813 4.813 0 0 1 1.047-1.5 4.937 4.937 0 0 1 3.453-1.39 4.937 4.937 0 0 1 3.453 1.39c.448.437.797.937 1.047 1.5.25.583.375 1.192.375 1.828 0 .635-.125 1.245-.375 1.828a4.813 4.813 0 0 1-1.047 1.5 4.806 4.806 0 0 1-1.547 1.015l-.004.002-.027.014v1.672zM11.908 18c.156 0 .289-.055.398-.164a.542.542 0 0 0 .164-.398.542.542 0 0 0-.164-.399.542.542 0 0 0-.398-.164h-4a.542.542 0 0 0-.399.164.542.542 0 0 0-.164.398c0 .157.055.29.164.399.11.11.242.164.399.164h4z"/>
    </g>
</svg>
