<svg xmlns="http://www.w3.org/2000/svg" width="24" height="24" viewBox="0 0 24 24">
    <g fill="none" fill-rule="evenodd">
        <path d="M0 0h24v24H0z"/>
        <path fill="#BAC3CF" fill-rule="nonzero" d="M11.908 18.056a6.546 6.546 0 0 0 3.376-.912 6.309 6.309 0 0 0 2.368-2.368 6.546 6.546 0 0 0 .912-3.376 6.546 6.546 0 0 0-.912-3.376 6.309 6.309 0 0 0-2.368-2.368 6.546 6.546 0 0 0-3.376-.912 6.517 6.517 0 0 0-3.36.912A6.55 6.55 0 0 0 6.164 8.04a6.517 6.517 0 0 0-.912 3.36c0 1.205.304 2.325.912 3.36a6.428 6.428 0 0 0 2.368 2.384 6.546 6.546 0 0 0 3.376.912zM15.844 15a1.407 1.407 0 0 0-.496-.68 1.275 1.275 0 0 0-.784-.264h-.656v-2a.632.632 0 0 0-.192-.464.632.632 0 0 0-.464-.192h-4v-1.344h1.312a.678.678 0 0 0 .488-.192.62.62 0 0 0 .2-.464V8.056h1.312c.362 0 .677-.128.944-.384.266-.256.4-.565.4-.928v-.288a5.16 5.16 0 0 1 1.736 1.128 5.342 5.342 0 0 1 1.184 1.736c.282.661.424 1.355.424 2.08a5.247 5.247 0 0 1-1.408 3.6zm-4.592 1.68a5.214 5.214 0 0 1-2.368-.904 5.353 5.353 0 0 1-1.68-1.864 5.206 5.206 0 0 1-.64-2.512c0-.384.053-.779.16-1.184L9.908 13.4v.656c0 .363.133.677.4.944.266.267.581.4.944.4v1.28z"/>
    </g>
</svg>
