<svg xmlns="http://www.w3.org/2000/svg" width="24" height="24" viewBox="0 0 24 24">
    <g fill="none" fill-rule="evenodd">
        <path d="M0 0H24V24H0z"/>
        <path fill="#BAC3CF" fill-rule="nonzero" d="M11.953 20.875c2.375 0 4.035-.203 4.98-.61.946-.406 1.458-.648 1.536-.726a.585.585 0 00.21-.246.747.747 0 00.071-.316V12.46c0-.047-.004-.098-.012-.152a.364.364 0 00-.058-.153l3.047-1.594v5.25a1.73 1.73 0 00-.54.551c-.14.227-.21.48-.21.762 0 .406.144.758.433 1.055.29.297.645.445 1.067.445a1.43 1.43 0 001.066-.445 1.46 1.46 0 00.434-1.055c0-.281-.07-.535-.211-.762a1.73 1.73 0 00-.54-.55V9.765l.376-.188a.678.678 0 00.293-.281.738.738 0 000-.762.967.967 0 00-.27-.293L12.328 2.22a.72.72 0 00-.363-.094.72.72 0 00-.363.094L.375 8.266a.743.743 0 00-.27.27.738.738 0 00-.105.386c0 .14.035.27.105.387.07.117.168.207.293.27l4.922 2.624a.52.52 0 00-.07.164.77.77 0 00-.023.188v6.351c0 .11.02.215.058.317a.51.51 0 00.2.246c.077.078.581.332 1.511.761.93.43 2.582.645 4.957.645zm0-6.844L2.297 8.898l9.68-5.18 9.68 5.18-9.704 5.133zm0 5.344c-1.578 0-2.777-.11-3.598-.328-.82-.219-1.363-.399-1.628-.54v-5.554l4.875 2.578a.52.52 0 00.164.07.77.77 0 00.187.024.637.637 0 00.176-.023c.055-.016.113-.04.176-.07l4.945-2.602v5.601c-.297.14-.86.317-1.688.528-.828.21-2.03.316-3.609.316z"/>
    </g>
</svg>
