<svg xmlns="http://www.w3.org/2000/svg" width="18" height="18" viewBox="0 0 18 18">
    <path fill="#7C8796" stroke="#7C8796" stroke-width=".5" d="M16.727 16.14l-4.845-4.89c.447-.542.8-1.154 1.06-1.836.26-.682.389-1.404.389-2.164 0-.865-.164-1.677-.49-2.438a6.247 6.247 0 00-3.327-3.32A6.015 6.015 0 007.099 1c-.862 0-1.672.164-2.43.492a6.387 6.387 0 00-1.987 1.336A6.142 6.142 0 001.35 4.813 6.186 6.186 0 00.867 7.25c0 .865.161 1.677.483 2.438.322.76.766 1.421 1.332 1.984a6.387 6.387 0 001.987 1.336 6.053 6.053 0 002.43.492c.78 0 1.517-.135 2.212-.406a6.308 6.308 0 001.87-1.125l4.83 4.875a.492.492 0 00.358.156.492.492 0 00.358-.156.478.478 0 00.14-.352.478.478 0 00-.14-.351zM7.1 12.517c-.727 0-1.41-.138-2.049-.414a5.228 5.228 0 01-1.667-1.133 5.431 5.431 0 01-1.121-1.672 5.094 5.094 0 01-.413-2.047c0-.73.138-1.411.413-2.047a5.431 5.431 0 011.121-1.672A5.228 5.228 0 015.05 2.398a5.108 5.108 0 012.05-.414 5.07 5.07 0 012.032.414A5.228 5.228 0 0110.8 3.531c.473.48.847 1.037 1.122 1.672.275.636.413 1.318.413 2.047 0 .73-.138 1.411-.413 2.047a5.431 5.431 0 01-1.122 1.672 5.228 5.228 0 01-1.667 1.133 5.07 5.07 0 01-2.033.414z"/>
</svg>
