<svg xmlns="http://www.w3.org/2000/svg" width="24" height="24" viewBox="0 0 24 24">
    <g fill="none" fill-rule="evenodd">
        <path d="M0 0H24V24H0z"/>
        <path fill="#16C0EF" fill-rule="nonzero" d="M17 21.28c.427 0 .827-.113 1.2-.34.373-.227.67-.53.89-.91.22-.38.33-.783.33-1.21 0-.427-.11-.827-.33-1.2-.22-.373-.517-.67-.89-.89-.373-.22-.773-.33-1.2-.33-.613 0-1.16.207-1.64.62l-5.94-3.44c.053-.267.08-.467.08-.6 0-.133-.027-.32-.08-.56l5.86-3.44c.533.467 1.107.7 1.72.7.44 0 .853-.113 1.24-.34.387-.227.693-.533.92-.92.227-.387.34-.8.34-1.24 0-.44-.113-.853-.34-1.24-.227-.387-.533-.693-.92-.92-.387-.227-.8-.34-1.24-.34-.44 0-.853.113-1.24.34-.387.227-.693.533-.92.92-.227.387-.34.8-.34 1.24 0 .12.027.313.08.58l-5.86 3.4c-.48-.44-1.053-.66-1.72-.66-.44 0-.853.113-1.24.34-.387.227-.693.533-.92.92-.227.387-.34.8-.34 1.24 0 .44.113.853.34 1.24.227.387.533.693.92.92.387.227.8.34 1.24.34.667 0 1.24-.22 1.72-.66l5.9 3.44c-.027.093-.04.273-.04.54 0 .427.11.83.33 1.21.22.38.517.683.89.91.373.227.773.34 1.2.34z"/>
    </g>
</svg>
