<svg xmlns="http://www.w3.org/2000/svg" width="24" height="24" viewBox="0 0 24 24">
    <g fill="none" fill-rule="evenodd">
        <path d="M0 0h24v24H0z"/>
        <path fill="#BAC3CF" fill-rule="nonzero" stroke="#BAC3CF" stroke-width=".5" d="M12 20a7.841 7.841 0 0 0 3.117-.625 8.028 8.028 0 0 0 2.547-1.71 8.028 8.028 0 0 0 1.711-2.548A7.841 7.841 0 0 0 20 12a7.841 7.841 0 0 0-.625-3.117 8.028 8.028 0 0 0-1.71-2.547 8.028 8.028 0 0 0-2.548-1.711A7.841 7.841 0 0 0 12 4a7.841 7.841 0 0 0-3.117.625 8.028 8.028 0 0 0-2.547 1.71 8.028 8.028 0 0 0-1.711 2.548A7.841 7.841 0 0 0 4 12c0 1.104.208 2.143.625 3.117a8.028 8.028 0 0 0 1.71 2.547 8.028 8.028 0 0 0 2.548 1.711A7.841 7.841 0 0 0 12 20zm0-1a6.753 6.753 0 0 1-2.727-.555 7.131 7.131 0 0 1-2.218-1.5 7.131 7.131 0 0 1-1.5-2.218A6.753 6.753 0 0 1 5 12c0-.969.185-1.878.555-2.727.37-.849.87-1.588 1.5-2.218.63-.63 1.37-1.13 2.218-1.5A6.753 6.753 0 0 1 12 5c.969 0 1.878.185 2.727.555.849.37 1.588.87 2.218 1.5.63.63 1.13 1.37 1.5 2.218.37.85.555 1.758.555 2.727 0 .969-.185 1.878-.555 2.727a7.131 7.131 0 0 1-1.5 2.218c-.63.63-1.37 1.13-2.218 1.5A6.753 6.753 0 0 1 12 19zm-2.5-7.5c.27 0 .503-.099.695-.297a.974.974 0 0 0 .29-.703.974.974 0 0 0-.29-.703A.936.936 0 0 0 9.5 9.5a.953.953 0 0 0-.71.297.974.974 0 0 0-.29.703c0 .27.096.505.29.703.192.198.429.297.71.297zm5 0c.27 0 .503-.099.695-.297a.974.974 0 0 0 .29-.703.974.974 0 0 0-.29-.703.936.936 0 0 0-.695-.297.953.953 0 0 0-.71.297.974.974 0 0 0-.29.703c0 .27.096.505.29.703.192.198.429.297.71.297zm-2.594 5.531l.016-.002.015-.006a.07.07 0 0 1 .032-.007c.802 0 1.484-.146 2.047-.438.562-.292 1.023-.612 1.382-.96.36-.35.623-.675.79-.977.166-.302.255-.47.265-.5a.432.432 0 0 0 .016-.375.538.538 0 0 0-.266-.282.512.512 0 0 0-.383-.007.447.447 0 0 0-.273.257c0 .01-.068.133-.203.368-.136.234-.347.492-.633.773a4.726 4.726 0 0 1-1.11.781c-.453.24-.997.36-1.632.36a.07.07 0 0 0-.031.007l-.016.008c-.604 0-1.123-.117-1.555-.351a4.749 4.749 0 0 1-1.07-.766 3.75 3.75 0 0 1-.633-.781c-.14-.245-.216-.378-.226-.399a.505.505 0 0 0-.657-.25.499.499 0 0 0-.273.282.49.49 0 0 0 .023.39c.01.021.102.185.274.492.172.308.435.636.789.985.354.349.804.67 1.351.96.547.292 1.2.438 1.961.438z"/>
    </g>
</svg>
