<svg xmlns="http://www.w3.org/2000/svg" width="1019.275" height="1217" viewBox="0 0 1019.275 1217">
  <path id="stack" d="M510.077,669.788a56.777,56.777,0,0,0,7.955-.608,15.479,15.479,0,0,0,7-3.04l478.241-307.5c4.646-3.192,8.464-7.9,11.455-14.288a47.489,47.489,0,0,0,4.455-20.14,43.71,43.71,0,0,0-4.455-19.608,32.957,32.957,0,0,0-12.473-13.68L529.932,4.788a24.09,24.09,0,0,0-28.828,0L23.817,290.928A36.222,36.222,0,0,0,10.9,304.608a39.542,39.542,0,0,0-4.964,19.608,46.556,46.556,0,0,0,4.455,20.14A31.907,31.907,0,0,0,22.8,358.644L495.122,666.216l7.509,2.28A21.57,21.57,0,0,0,510.077,669.788Zm0-80.788L106.355,326.572,515.04,80.788,918.761,326.572Zm-4.964,361a22.066,22.066,0,0,0,7.446-1.216,42.851,42.851,0,0,0,7.446-3.5L997.291,637.716a32.313,32.313,0,0,0,12.409-14.288,46.555,46.555,0,0,0,4.455-20.14,39.743,39.743,0,0,0-4.964-19A34.938,34.938,0,0,0,996.273,570l-94.439-57-67.711,43.928,79.548,48.64-408.621,262.5L101.328,605.644l84.512-51.072-67.647-43.928L17.771,570A32.818,32.818,0,0,0,5.362,583.68,42.883,42.883,0,0,0,.907,603.288a46.556,46.556,0,0,0,4.455,20.14c2.991,6.308,6.809,11.1,11.455,14.288l472.323,307.5a32.269,32.269,0,0,0,7.955,3.572A28.509,28.509,0,0,0,505.049,950Zm0,266a22.063,22.063,0,0,0,7.446-1.216,42.851,42.851,0,0,0,7.446-3.5L997.291,903.716a32.313,32.313,0,0,0,12.409-14.288,46.555,46.555,0,0,0,4.455-20.14,39.743,39.743,0,0,0-4.964-19A34.938,34.938,0,0,0,996.273,836L906.8,783.712l-67.584,44,74.52,43.928L505.113,1134.072,101.392,871.644l78.53-42.788-67.584-43.928L17.835,836A32.818,32.818,0,0,0,5.425,849.68,42.882,42.882,0,0,0,.971,869.288a46.557,46.557,0,0,0,4.455,20.14c2.991,6.308,6.809,11.1,11.455,14.288l472.323,307.5a32.268,32.268,0,0,0,7.955,3.572A28.511,28.511,0,0,0,505.113,1216Z" transform="translate(-0.407 0.5)" fill="#7c8796" stroke="#515151" stroke-width="1"/>
</svg>
