<svg xmlns="http://www.w3.org/2000/svg" width="17" height="16" viewBox="0 0 17 16">
    <path fill="#16C0EF" d="M8.908 8.813c.041 0 .083-.003.125-.008.041-.006.078-.019.11-.04l7.515-4.046c.073-.042.133-.104.18-.188.046-.083.07-.172.07-.265 0-.094-.024-.18-.07-.258-.047-.078-.113-.138-.196-.18L9.22.063C9.147.02 9.072 0 8.994 0c-.078 0-.154.02-.227.063l-7.5 3.765c-.083.042-.151.102-.203.18-.052.078-.078.164-.078.258 0 .093.023.182.07.265.047.084.112.146.195.188l7.422 4.047.118.03c.036.011.075.017.117.017zm0-1.063L2.564 4.297l6.422-3.234 6.344 3.234L8.908 7.75zM8.83 12.5c.041 0 .08-.005.117-.016.036-.01.075-.026.117-.046l7.5-4.047c.083-.042.148-.105.195-.188.047-.083.07-.172.07-.265 0-.084-.025-.167-.078-.25-.052-.084-.12-.146-.203-.188l-1.484-.75L14 7.328l1.25.64-6.421 3.454-6.344-3.453 1.328-.672-1.063-.578-1.578.781c-.083.042-.148.102-.195.18-.047.078-.07.164-.07.258 0 .093.023.182.07.265.047.083.107.146.18.188l7.422 4.046c.041.021.083.037.125.047.041.01.083.016.125.016zm0 3.5c.041 0 .08-.005.117-.016.036-.01.075-.026.117-.046l7.5-4.047c.083-.042.148-.105.195-.188.047-.083.07-.172.07-.265 0-.084-.025-.167-.078-.25-.052-.084-.12-.146-.203-.188l-1.406-.688-1.062.579 1.171.578-6.421 3.453-6.344-3.453 1.234-.563-1.062-.578L1.173 11c-.083.042-.148.102-.195.18-.047.078-.07.164-.07.258 0 .093.023.182.07.265.047.083.107.146.18.188l7.422 4.046c.041.021.083.037.125.047.041.01.083.016.125.016z"/>
</svg>
