<svg xmlns="http://www.w3.org/2000/svg" width="20" height="20" viewBox="0 0 20 20">
    <g fill="none" fill-rule="evenodd">
        <path d="M0 0h20v20H0z"/>
        <path fill="#7C8796" fill-rule="nonzero" d="M16.016 15a.95.95 0 0 0 .697-.287.95.95 0 0 0 .287-.697V5.484a.95.95 0 0 0-.287-.697.95.95 0 0 0-.697-.287H3.984a.95.95 0 0 0-.697.287.95.95 0 0 0-.287.697v8.532a.95.95 0 0 0 .287.697.95.95 0 0 0 .697.287h12.032zm0-7.547H3.984V5.484h12.032v1.97zM4.859 6.961a.475.475 0 0 0 .349-.144.475.475 0 0 0 .144-.348.475.475 0 0 0-.144-.349.475.475 0 0 0-.349-.143.486.486 0 0 0-.355.15.464.464 0 0 0-.137.342c0 .136.048.253.144.348a.475.475 0 0 0 .348.144zm1.422 0a.475.475 0 0 0 .349-.144.475.475 0 0 0 .143-.348.475.475 0 0 0-.143-.349.475.475 0 0 0-.349-.143.486.486 0 0 0-.355.15.464.464 0 0 0-.137.342c0 .136.048.253.144.348a.475.475 0 0 0 .348.144zm1.422 0a.475.475 0 0 0 .349-.144.475.475 0 0 0 .143-.348.475.475 0 0 0-.143-.349.475.475 0 0 0-.349-.143.486.486 0 0 0-.355.15.464.464 0 0 0-.137.342c0 .136.048.253.143.348a.475.475 0 0 0 .35.144zM6.5 14.016H3.984V8.437H6.5v5.579zm9.516-3.268c0-.01-.005-.014-.014-.014H7.498c-.01 0-.014.005-.014.014v-2.31h8.532v2.31zm0 3.268H7.484v-2.31c0 .008.005.013.014.013h8.504c.01 0 .014-.005.014-.014v2.31z"/>
    </g>
</svg>
