<svg xmlns="http://www.w3.org/2000/svg" width="24" height="24" viewBox="0 0 24 24">
    <g fill="none" fill-rule="evenodd">
        <path d="M0 0H24V24H0z"/>
        <g stroke="#7C8796" stroke-width="1.5" transform="translate(2.571 3.429)">
            <path d="M17.217 12.04v3.28c0 .905-.734 1.639-1.64 1.639H1.64c-.906 0-1.64-.734-1.64-1.64V5.481c0-.906.734-1.64 1.64-1.64h13.938c.905 0 1.64.734 1.64 1.64v2.46h0"/>
            <rect width="7.379" height="4.099" x="11.478" y="7.94" rx=".82"/>
            <path d="M0 5.087c0-.736.491-1.383 1.2-1.58L13.719.03c.437-.121.889.134 1.01.57.02.072.03.146.03.22v3.02h0"/>
        </g>
    </g>
</svg>
