<svg xmlns="http://www.w3.org/2000/svg" width="17" height="16" viewBox="0 0 17 16">
    <path fill="#5D677E" fill-rule="nonzero" d="M12.57 13.034l-3.14-1.733c.583-.468.976-1.082 1.18-1.842.203-.76.304-1.394.304-1.904V5.448c0-.354-.106-.705-.32-1.054a3.686 3.686 0 0 0-.844-.944 4.565 4.565 0 0 0-1.195-.687 3.713 3.713 0 0 0-1.375-.265c-.458 0-.914.088-1.367.265a4.66 4.66 0 0 0-1.211.687c-.354.28-.64.596-.86.944-.218.349-.328.7-.328 1.054v2.107c0 .458.115 1.077.344 1.858.23.78.64 1.405 1.234 1.873l-3.234 1.748-.422.25c-.281.166-.422.364-.422.593v1.264c0 .24.084.44.25.601a.825.825 0 0 0 .594.242h10.813c.229 0 .427-.08.593-.242a.803.803 0 0 0 .25-.6v-1.265c0-.25-.14-.453-.422-.609l-.421-.234zm-.156 1.951h-10.5v-.89l.117-.077a.433.433 0 0 1 .133-.063c.01-.01.021-.018.032-.023a.07.07 0 0 1 .03-.008l3.235-1.764a.922.922 0 0 0 .36-.32.92.92 0 0 0 .156-.46.911.911 0 0 0-.07-.484 1.035 1.035 0 0 0-.29-.39c-.427-.334-.734-.81-.921-1.429-.188-.62-.282-1.126-.282-1.522V5.448c0-.364.284-.78.852-1.249.568-.468 1.206-.702 1.914-.702.73 0 1.367.234 1.914.702.547.468.82.885.82 1.249v2.107c0 .396-.078.903-.234 1.522-.156.62-.448 1.095-.875 1.428a.973.973 0 0 0-.305.39.911.911 0 0 0-.07.484.92.92 0 0 0 .156.461c.094.14.214.252.36.336l3.14 1.732c.021.01.04.021.055.031.015.01.028.016.039.016l.125.063c.042.02.078.046.11.078v.89zm.469-6.181l3.61 1.982c.28.156.421.36.421.61v1.248c0 .24-.083.44-.25.6a.825.825 0 0 1-.593.243h-1.657a5.72 5.72 0 0 0-.195-.578 1.015 1.015 0 0 0-.32-.421h2.015v-.89l-.11-.07a.436.436 0 0 0-.124-.055l-.018-.014-.076-.033L12.4 9.694a1.056 1.056 0 0 1-.36-.336.92.92 0 0 1-.156-.46.911.911 0 0 1 .07-.484.97.97 0 0 1 .21-.308l.095-.083c.427-.343.727-.824.898-1.444.172-.619.258-1.12.258-1.506V2.966c0-.375-.281-.796-.843-1.265A2.941 2.941 0 0 0 10.633 1a3.181 3.181 0 0 0-1.906.64 2.457 2.457 0 0 0-.625-.11l-.64-.03A4.506 4.506 0 0 1 8.866.42a3.852 3.852 0 0 1 1.766-.437c.469 0 .93.091 1.383.274.453.182.857.413 1.21.694.355.281.641.599.86.952.219.354.328.708.328 1.062v2.107c0 .5-.11 1.132-.328 1.897-.219.765-.62 1.376-1.203 1.834z"/>
</svg>
