<svg xmlns="http://www.w3.org/2000/svg" width="104" height="104" viewBox="0 0 104 104">
    <g fill="none" fill-rule="evenodd">
        <circle cx="52" cy="52" r="52" fill="#F8F8F8"/>
        <path fill="#7C8796" fill-rule="nonzero" d="M67.469 66c.703 0 1.3-.246 1.793-.738.492-.492.738-1.09.738-1.793V41.53c0-.703-.246-1.3-.738-1.793A2.441 2.441 0 0 0 67.469 39H36.53c-.703 0-1.3.246-1.793.738A2.441 2.441 0 0 0 34 41.531V63.47c0 .703.246 1.3.738 1.793.492.492 1.09.738 1.793.738H67.47zm0-2.531H36.53V41.53H67.47V63.47zM47.219 61.5c.703 0 1.3-.246 1.793-.738.492-.492.738-1.09.738-1.793v-3.094c0-.96-.223-1.852-.668-2.672a5.682 5.682 0 0 0-1.793-2.004c.89-.867 1.336-1.933 1.336-3.199 0-1.242-.44-2.303-1.318-3.182-.88-.879-1.94-1.318-3.182-1.318s-2.303.44-3.182 1.318c-.879.88-1.318 1.94-1.318 3.182 0 1.266.445 2.332 1.336 3.2a5.682 5.682 0 0 0-1.793 2.003 5.511 5.511 0 0 0-.668 2.672v3.094c0 .703.246 1.3.738 1.793.492.492 1.09.738 1.793.738h6.188zM64.234 48c.352 0 .65-.123.897-.37a1.22 1.22 0 0 0 .369-.896c0-.351-.123-.65-.37-.896a1.22 1.22 0 0 0-.896-.37H53.266c-.352 0-.65.124-.897.37a1.22 1.22 0 0 0-.369.896c0 .352.123.65.37.897.245.246.544.369.896.369h10.968zm-20.109 1.969c-.54 0-1.002-.194-1.389-.58a1.895 1.895 0 0 1-.58-1.389c0-.54.188-.996.563-1.371.398-.399.867-.598 1.406-.598.54 0 1.002.194 1.389.58.386.387.58.85.58 1.389 0 .54-.194 1.002-.58 1.389-.387.386-.85.58-1.389.58zm17.86 3.797c.35 0 .65-.123.896-.37a1.22 1.22 0 0 0 .369-.896c0-.352-.123-.65-.37-.896a1.22 1.22 0 0 0-.896-.37h-8.718c-.352 0-.65.123-.897.37A1.22 1.22 0 0 0 52 52.5c0 .352.123.65.37.896.245.247.544.37.896.37h8.718zm-14.942 5.203h-5.836c-.117 0-.176-.059-.176-.176v-2.918c0-.844.305-1.57.914-2.18.61-.61 1.336-.914 2.18-.914.844 0 1.57.305 2.18.914.61.61.914 1.336.914 2.18v2.918c0 .117-.059.176-.176.176zm12.691.562c.352 0 .65-.123.897-.369a1.22 1.22 0 0 0 .369-.896c0-.352-.123-.65-.37-.897a1.22 1.22 0 0 0-.896-.369h-6.468c-.352 0-.65.123-.897.37a1.22 1.22 0 0 0-.369.896c0 .351.123.65.37.896.245.246.544.37.896.37h6.468z"/>
        <g fill-rule="nonzero">
            <path fill="#FB4F6D" fill-rule="evenodd" stroke="#F8F8F8" stroke-width="2" d="M61.586 35.216l2.63-2.63L69 37.369l4.784-4.783 2.63 2.63L71.631 40l4.783 4.784-2.63 2.63L69 42.631l-4.784 4.783-2.63-2.63L66.369 40l-4.783-4.784z"/>
            <path stroke="#FB4F6D" stroke-width=".5" d="M64.216 33.646L69 38.43l4.784-4.784 1.57 1.57L70.57 40l4.784 4.784-1.57 1.57L69 41.57l-4.784 4.784-1.57-1.57L67.43 40l-4.784-4.784 1.57-1.57z"/>
        </g>
    </g>
</svg>
