<svg xmlns="http://www.w3.org/2000/svg" width="13" height="16" viewBox="0 0 13 16">
    <path fill="#7C8796" d="M6.908 16c.312 0 .578-.11.797-.328.218-.219.328-.485.328-.797v-.75h4.312c.156 0 .29-.055.399-.164.109-.11.164-.242.164-.399 0-.156-.055-.289-.164-.398-.11-.11-.243-.164-.399-.164h-.437V6c0-1.281-.427-2.396-1.282-3.344-.854-.948-1.906-1.49-3.156-1.625V.563c0-.157-.054-.29-.164-.399C7.196.054 7.064 0 6.908 0c-.157 0-.29.055-.399.164-.11.11-.164.242-.164.398v.47c-1.25.135-2.302.676-3.156 1.624C2.335 3.604 1.908 4.72 1.908 6v7H1.47c-.156 0-.289.055-.398.164-.11.11-.164.242-.164.399 0 .156.054.289.164.398.11.11.242.164.398.164h4.313v.75c0 .313.11.578.328.797.219.219.484.328.797.328zm3.875-3h-7.75V6c0-1.073.377-1.987 1.133-2.742.755-.755 1.669-1.133 2.742-1.133s1.987.378 2.742 1.133c.755.755 1.133 1.67 1.133 2.742v7z"/>
</svg>
