<svg xmlns="http://www.w3.org/2000/svg" width="18" height="18" viewBox="0 0 18 18">
    <path fill="#7C8796" stroke="#7C8796" stroke-width=".5" d="M16.727 16.14l-4.845-4.89c.447-.542.8-1.154 1.06-1.836.26-.682.389-1.404.389-2.164 0-.865-.164-1.677-.49-2.438-.328-.76-.775-1.421-1.34-1.984-.567-.562-1.229-1.008-1.987-1.336C8.756 1.164 7.951 1 7.099 1c-.862 0-1.672.164-2.43.492-.758.328-1.42.774-1.987 1.336-.566.563-1.01 1.224-1.332 1.985-.322.76-.483 1.572-.483 2.437 0 .865.161 1.677.483 2.438.322.76.766 1.421 1.332 1.984.566.562 1.229 1.008 1.987 1.336.758.328 1.568.492 2.43.492.78 0 1.517-.135 2.212-.406.696-.271 1.32-.646 1.87-1.125l4.83 4.875c.103.104.223.156.358.156.135 0 .254-.052.358-.156.094-.094.14-.211.14-.352 0-.14-.046-.258-.14-.351zM7.1 12.517c-.727 0-1.41-.138-2.049-.414-.638-.276-1.194-.654-1.667-1.133-.472-.48-.846-1.037-1.121-1.672-.275-.636-.413-1.318-.413-2.047 0-.73.138-1.411.413-2.047.275-.635.649-1.193 1.121-1.672.473-.479 1.029-.857 1.667-1.133.64-.276 1.322-.414 2.05-.414.716 0 1.394.138 2.032.414.639.276 1.195.654 1.667 1.133.473.48.847 1.037 1.122 1.672.275.636.413 1.318.413 2.047 0 .73-.138 1.411-.413 2.047-.275.635-.65 1.193-1.122 1.672-.472.479-1.028.857-1.667 1.133-.638.276-1.316.414-2.033.414z"/>
</svg>
