<svg xmlns="http://www.w3.org/2000/svg" width="17" height="16" viewBox="0 0 17 16">
    <path fill="#5D677E" fill-rule="nonzero" d="M8.914 0a7.841 7.841 0 0 0-3.117.625 8.028 8.028 0 0 0-2.547 1.71 8.028 8.028 0 0 0-1.71 2.548A7.841 7.841 0 0 0 .913 8c0 1.104.209 2.143.625 3.117a8.028 8.028 0 0 0 1.711 2.547 8.028 8.028 0 0 0 2.547 1.711A7.841 7.841 0 0 0 8.914 16a7.841 7.841 0 0 0 3.117-.625 8.028 8.028 0 0 0 2.547-1.71 8.028 8.028 0 0 0 1.711-2.548A7.841 7.841 0 0 0 16.914 8a7.841 7.841 0 0 0-.625-3.117 8.028 8.028 0 0 0-1.71-2.547A8.028 8.028 0 0 0 12.03.625 7.841 7.841 0 0 0 8.914 0zm0 15.016a6.753 6.753 0 0 1-2.726-.555 7.064 7.064 0 0 1-2.219-1.508 7.228 7.228 0 0 1-1.5-2.226A6.753 6.753 0 0 1 1.914 8c0-.969.185-1.878.555-2.727.37-.849.87-1.588 1.5-2.218.63-.63 1.37-1.13 2.219-1.5A6.753 6.753 0 0 1 8.914 1c.969 0 1.878.185 2.727.555.849.37 1.588.87 2.219 1.5.63.63 1.13 1.37 1.5 2.218.37.85.554 1.758.554 2.727 0 .969-.185 1.878-.554 2.727a7.228 7.228 0 0 1-1.5 2.226 7.064 7.064 0 0 1-2.22 1.508 6.753 6.753 0 0 1-2.726.555zm.5-7.22l2.36 2.36c.093.094.14.211.14.352 0 .14-.047.258-.14.351a.453.453 0 0 1-.352.157.453.453 0 0 1-.351-.157L8.586 8.391l-.002-.014-.013-.018a.388.388 0 0 1-.118-.156A.523.523 0 0 1 8.414 8V3a.48.48 0 0 1 .149-.352.48.48 0 0 1 .351-.148.48.48 0 0 1 .352.148.48.48 0 0 1 .148.352v4.797z"/>
</svg>
