<svg xmlns="http://www.w3.org/2000/svg" width="17" height="16" viewBox="0 0 17 16">
    <path fill="#5D677E" d="M8.914 0C7.81 0 6.771.208 5.797.625c-.974.417-1.823.987-2.547 1.71-.724.725-1.294 1.574-1.71 2.548C1.122 5.857.913 6.896.913 8s.209 2.143.625 3.117c.417.974.987 1.823 1.711 2.547.724.724 1.573 1.294 2.547 1.711.974.417 2.013.625 3.117.625s2.144-.208 3.117-.625c.974-.417 1.823-.987 2.547-1.71.724-.725 1.295-1.574 1.711-2.548.417-.974.625-2.013.625-3.117s-.208-2.143-.625-3.117c-.416-.974-.987-1.823-1.71-2.547-.725-.724-1.574-1.294-2.548-1.711C11.058.208 10.018 0 8.914 0zm0 15.016c-.968 0-1.877-.185-2.726-.555-.85-.37-1.589-.872-2.219-1.508-.63-.635-1.13-1.377-1.5-2.226-.37-.85-.555-1.758-.555-2.727 0-.969.185-1.878.555-2.727.37-.849.87-1.588 1.5-2.218.63-.63 1.37-1.13 2.219-1.5C7.037 1.185 7.946 1 8.914 1c.969 0 1.878.185 2.727.555.849.37 1.588.87 2.219 1.5.63.63 1.13 1.37 1.5 2.218.37.85.554 1.758.554 2.727 0 .969-.185 1.878-.554 2.727-.37.849-.87 1.59-1.5 2.226-.63.636-1.37 1.138-2.22 1.508-.848.37-1.757.555-2.726.555zm.5-7.22l2.36 2.36c.093.094.14.211.14.352 0 .14-.047.258-.14.351-.094.105-.211.157-.352.157-.14 0-.258-.052-.351-.157L8.586 8.391l-.002-.014-.013-.018c-.053-.041-.092-.093-.118-.156-.026-.062-.039-.13-.039-.203V3c0-.135.05-.253.149-.352.099-.099.216-.148.351-.148.136 0 .253.05.352.148.099.1.148.217.148.352v4.797z"/>
</svg>
