<svg xmlns="http://www.w3.org/2000/svg" width="18" height="18" viewBox="0 0 18 18">
    <path fill="#7C8796" d="M3.27 18c.105 0 .21-.03.316-.088l2.602-1.476c.914.28 1.851.421 2.812.421 1.207 0 2.367-.216 3.48-.65 1.079-.434 2.034-1.037 2.866-1.81.832-.774 1.476-1.665 1.933-2.672.48-1.043.721-2.145.721-3.305 0-1.137-.24-2.232-.72-3.287-.458-1.008-1.102-1.904-1.934-2.69-.832-.773-1.787-1.37-2.866-1.793C11.38.217 10.22 0 9 0 7.781 0 6.621.217 5.52.65c-1.079.422-2.034 1.02-2.866 1.793-.832.786-1.476 1.682-1.933 2.69C.24 6.187 0 7.283 0 8.42c0 1.031.193 2.024.58 2.98.387.954.938 1.819 1.652 2.592l.405 3.445c.035.223.152.387.351.493.082.047.176.07.282.07zm.51-1.652l-.317-2.725c-.012-.14-.07-.264-.176-.37-.656-.655-1.157-1.4-1.503-2.232-.346-.832-.518-1.699-.518-2.601 0-.961.199-1.88.597-2.76.387-.855.938-1.617 1.653-2.285.714-.668 1.535-1.184 2.46-1.547.962-.375 1.97-.562 3.024-.562 1.055 0 2.063.187 3.023.562.926.375 1.747.894 2.461 1.556.715.662 1.266 1.42 1.653 2.276.398.88.597 1.802.597 2.769 0 .967-.199 1.89-.597 2.768-.387.856-.938 1.617-1.653 2.285-.714.657-1.535 1.166-2.46 1.53-.961.386-1.97.58-3.024.58-.926 0-1.816-.147-2.672-.44-.187-.058-.363-.04-.527.053l-2.022 1.143zm1.353-6.944c.27 0 .498-.093.685-.281.188-.187.282-.416.282-.685 0-.27-.094-.499-.282-.686-.187-.188-.416-.281-.685-.281-.27 0-.498.093-.686.281-.187.187-.281.416-.281.686 0 .269.094.498.281.685.188.188.416.281.686.281zm7.734 0c.27 0 .498-.093.686-.281.187-.187.281-.416.281-.685 0-.27-.094-.499-.281-.686-.188-.188-.416-.281-.686-.281-.27 0-.498.093-.685.281-.188.187-.282.416-.282.686 0 .269.094.498.282.685.187.188.416.281.685.281zM9 9.404c.27 0 .498-.093.686-.281.187-.187.28-.416.28-.685 0-.27-.093-.499-.28-.686-.188-.188-.416-.281-.686-.281-.27 0-.498.093-.686.281-.187.187-.28.416-.28.686 0 .269.093.498.28.685.188.188.416.281.686.281z"/>
</svg>
