<svg xmlns="http://www.w3.org/2000/svg" width="18" height="19" viewBox="0 0 18 19">
    <path fill="#7C8796" d="M9 18.125c1.242 0 2.411-.234 3.507-.703s2.05-1.11 2.865-1.925c.815-.814 1.456-1.77 1.925-2.865.469-1.096.703-2.265.703-3.507s-.234-2.411-.703-3.507-1.11-2.05-1.925-2.865c-.814-.815-1.77-1.456-2.865-1.925C11.41.36 10.242.125 9 .125S6.589.359 5.493.828s-2.05 1.11-2.865 1.925c-.815.814-1.456 1.77-1.925 2.865C.234 6.714 0 7.883 0 9.125s.234 2.411.703 3.507 1.11 2.05 1.925 2.865c.814.815 1.77 1.456 2.865 1.925 1.096.469 2.265.703 3.507.703zm0-1.107c-1.09 0-2.112-.208-3.067-.624-.955-.416-1.787-.982-2.496-1.697-.71-.715-1.272-1.55-1.688-2.505-.416-.955-.624-1.977-.624-3.067s.208-2.112.624-3.067c.416-.955.979-1.787 1.688-2.496.709-.71 1.54-1.272 2.496-1.688C6.888 1.458 7.91 1.25 9 1.25s2.112.208 3.067.624c.955.416 1.787.979 2.496 1.688.71.709 1.272 1.54 1.688 2.496.416.955.624 1.977.624 3.067s-.208 2.112-.624 3.067c-.416.955-.979 1.79-1.688 2.505-.709.715-1.54 1.28-2.496 1.697-.955.416-1.977.624-3.067.624zm-3.902-3.516c.047 0 .088-.003.123-.009.035-.006.07-.02.105-.044l5.38-2.232c.046-.024.09-.053.13-.088.042-.035.074-.076.098-.123l2.654-5.22c.058-.106.079-.218.061-.335-.017-.117-.061-.217-.131-.299-.082-.082-.182-.131-.3-.15-.116-.017-.228-.002-.333.045L7.383 7.42c-.047.023-.091.056-.132.097-.041.04-.073.085-.097.131l-2.531 5.08c-.047.106-.061.214-.044.326.018.111.067.208.15.29.046.047.102.085.167.114.064.03.131.044.202.044zm5.185-3.533L8.72 8l3.111-1.213-1.547 3.182zm-3.99 1.845l1.53-3.128 1.546 1.933-3.076 1.195z"/>
</svg>
