<svg xmlns="http://www.w3.org/2000/svg" width="18" height="19" viewBox="0 0 18 19">
    <path fill="#7C8796" d="M6.188 18.125c.152 0 .284-.056.395-.167.111-.111.167-.243.167-.395l.018-5.625h4.482v5.624c0 .153.056.285.167.396.111.111.243.167.396.167h3.937c.152 0 .284-.056.396-.167.11-.111.166-.243.166-.395v-8.42l.756.79c.047.06.106.103.176.132.07.03.147.044.229.044.07 0 .137-.014.202-.044.064-.029.126-.067.184-.114.106-.117.162-.252.167-.404.006-.152-.044-.287-.149-.404L9.422.3C9.375.242 9.316.198 9.246.169 9.176.139 9.1.125 9.018.125c-.07 0-.141.015-.211.044-.07.03-.135.073-.194.132L.123 9.143c-.105.117-.155.252-.15.404.006.152.062.287.168.404.117.106.252.155.404.15.152-.006.287-.062.404-.167l.756-.791v8.42c0 .152.053.284.158.395.106.111.24.167.405.167h3.92zM5.625 17H2.83V8.123c0-.023-.003-.047-.009-.07-.006-.024-.009-.047-.009-.07l6.206-6.47 6.187 6.47c-.012.023-.018.046-.018.07V17h-2.812v-5.625c0-.152-.056-.284-.167-.396-.111-.11-.243-.166-.396-.166H6.205c-.152 0-.284.055-.395.166-.112.112-.167.244-.167.396L5.625 17z"/>
</svg>
