<svg xmlns="http://www.w3.org/2000/svg" width="14" height="18" viewBox="0 0 14 18">
    <path fill="#7C8796" d="M6.75 18c.352 0 .65-.123.896-.37.247-.245.37-.544.37-.896v-.843h4.851c.176 0 .325-.062.448-.185s.185-.272.185-.448-.062-.325-.185-.448-.272-.185-.448-.185h-.492V6.75c0-1.441-.48-2.695-1.441-3.762-.961-1.066-2.145-1.675-3.551-1.828V.633c0-.176-.062-.325-.185-.448S6.926 0 6.75 0s-.325.062-.448.185-.185.272-.185.448v.527c-1.406.153-2.59.762-3.55 1.828-.962 1.067-1.442 2.32-1.442 3.762v7.875H.633c-.176 0-.325.062-.448.185S0 15.082 0 15.258s.062.325.185.448.272.185.448.185h4.851v.843c0 .352.123.65.37.897.246.246.544.369.896.369zm4.36-3.375H2.39V6.75c0-1.207.425-2.235 1.275-3.085.85-.85 1.878-1.274 3.085-1.274s2.235.424 3.085 1.274c.85.85 1.274 1.878 1.274 3.085v7.875z"/>
</svg>
