<svg xmlns="http://www.w3.org/2000/svg" width="16" height="15" viewBox="0 0 16 15">
    <path fill="#16C0EF" d="M8 15c.195 0 .361-.072.498-.215.137-.143.205-.306.205-.488V8.203h6.211c.195 0 .361-.068.498-.205.137-.137.205-.303.205-.498s-.068-.361-.205-.498c-.137-.137-.303-.205-.498-.205h-6.21V.742c0-.195-.07-.361-.206-.498C8.361.107 8.195.04 8 .04s-.361.068-.498.205c-.137.137-.205.303-.205.498v6.055H1.203c-.182 0-.345.068-.488.205C.572 7.139.5 7.305.5 7.5s.072.361.215.498c.143.137.306.205.488.205h6.094v6.094c0 .182.068.345.205.488.137.143.303.215.498.215z"/>
</svg>
